<?xml version="1.0" encoding="UTF-8"?>
<!DOCTYPE svg PUBLIC "-//W3C//DTD SVG 1.1//EN" "http://www.w3.org/Graphics/SVG/1.1/DTD/svg11.dtd">
<!-- Creator: CorelDRAW 2020 (64 Bit Versão de avaliação) -->
<svg xmlns="http://www.w3.org/2000/svg" xml:space="preserve" width="500px" height="500px" version="1.1" style="shape-rendering:geometricPrecision; text-rendering:geometricPrecision; image-rendering:optimizeQuality; fill-rule:evenodd; clip-rule:evenodd"
viewBox="0 0 130.55 130.65"
 xmlns:xlink="http://www.w3.org/1999/xlink"
 xmlns:xodm="http://www.corel.com/coreldraw/odm/2003">
 <defs>
  <style type="text/css">
   <![CDATA[
    .fil8 {fill:#0677B7}
    .fil6 {fill:#2CA1DD}
    .fil4 {fill:#411126}
    .fil10 {fill:#551658}
    .fil7 {fill:#56C7D4}
    .fil5 {fill:#9E2265}
    .fil1 {fill:#D3E58A}
    .fil11 {fill:#F13C46}
    .fil16 {fill:#F6E8E3}
    .fil3 {fill:#F8F7F8}
    .fil9 {fill:#F98223}
    .fil15 {fill:#FC81B7}
    .fil2 {fill:#FECD09}
    .fil0 {fill:#FEF9B0}
    .fil12 {fill:#FEFEFE}
    .fil17 {fill:url(#id0)}
    .fil18 {fill:url(#id1)}
    .fil14 {fill:url(#id2)}
    .fil13 {fill:url(#id3)}
   ]]>
  </style>
  <linearGradient id="id0" gradientUnits="userSpaceOnUse" x1="64.94" y1="27.99" x2="64.94" y2="60.75">
   <stop offset="0" style="stop-opacity:1; stop-color:#60193E"/>
   <stop offset="1" style="stop-opacity:1; stop-color:#4F1334"/>
  </linearGradient>
  <linearGradient id="id1" gradientUnits="userSpaceOnUse" x1="62.73" y1="7.81" x2="62.73" y2="34.9">
   <stop offset="0" style="stop-opacity:1; stop-color:#74204C"/>
   <stop offset="1" style="stop-opacity:1; stop-color:#972266"/>
  </linearGradient>
  <radialGradient id="id2" gradientUnits="userSpaceOnUse" gradientTransform="matrix(1.78 -0 -0 1.24686 -74 -3)" cx="95.11" cy="11.25" r="6.16" fx="95.11" fy="11.25">
   <stop offset="0" style="stop-opacity:1; stop-color:#BAC641"/>
   <stop offset="1" style="stop-opacity:1; stop-color:#477733"/>
  </radialGradient>
  <radialGradient id="id3" gradientUnits="userSpaceOnUse" gradientTransform="matrix(1.47 -0 -0 1.03345 -44 0)" xlink:href="#id2" cx="92.92" cy="7.25" r="6.24" fx="92.92" fy="7.25">
  </radialGradient>
 </defs>
 <g id="Camada_x0020_1">
  <metadata id="CorelCorpID_0Corel-Layer"/>
  <path class="fil0" d="M23.64 22.14c-1.13,0 -1.09,0.14 -1.77,0.19 -0.41,0 -0.86,0.04 -1.22,0.18 -0.23,0.09 -1.73,0.41 -2.59,0.81 -1.18,0.55 -1.91,0.91 -3.04,1.68 -1.23,0.82 -1.63,1.27 -2.59,2.18 -0.22,0.18 -0.31,0.32 -0.45,0.5 -0.82,0.82 -1.86,2.31 -2.36,3.4 -0.23,0.41 -0.45,0.87 -0.59,1.32l-0.5 1.41c-0.32,0.99 -0.45,2.17 -0.45,3.4l0 0.04c0,1.77 0.31,3.23 0.9,4.86 0.1,0.23 0.23,0.5 0.32,0.68l0.68 1.23c0.37,0.63 0.73,1.17 1.18,1.72l1.59 1.77c0.23,0.18 0.18,0.04 0.23,0.36 -0.86,0.14 -1.77,0.27 -2.63,0.46 -1.55,0.4 -3.04,0.95 -4.31,1.9 -0.59,0.46 -1.18,0.91 -1.59,1.59 -0.73,1.13 -1.14,1.86 -1.46,3.18 -0.13,0.4 -0.18,0.9 -0.31,1.31 -0.5,1.82 -0.41,6.94 -0.41,9.3 0,0.55 0.13,1.18 0.13,1.82 0,0.63 0.05,1.27 0.1,1.86 0,0.36 0.09,0.5 0.09,0.82 0,0.41 0.04,0.63 0.09,0.95 0.13,1.13 0.22,2.36 0.45,3.45 0.23,1.09 0.36,2.27 0.59,3.36 0.18,0.72 0.41,1.54 0.59,2.26 0.09,0.32 0.18,0.5 0.23,0.78 0.45,1.99 1.13,4.03 1.9,5.94 0.09,0.32 0.18,0.41 0.28,0.64 0.27,0.63 0.4,1.13 0.72,1.77l1.41 3.04c0.23,0.4 0.45,0.81 0.63,1.27 0.19,0.54 1.41,2.54 1.77,3.08 0.14,0.23 0.28,0.36 0.41,0.59 0.32,0.68 0.77,1.23 1.14,1.82 0.95,1.63 2.63,3.58 3.76,5.08 0.59,0.73 1.23,1.36 1.82,2.09 0.32,0.36 0.68,0.68 0.95,0.99 0.5,0.59 0.95,1 1.45,1.5l1 0.95c2.41,2.18 4.86,4.32 7.62,6.09 0.82,0.54 2.23,1.45 3,1.9l1.27 0.73c0.41,0.22 0.77,0.5 1.18,0.68l0.86 0.45c0,0.05 0.05,0.05 0.09,0.05l5.08 2.31c0.41,0.14 1.05,0.45 1.41,0.55 1.18,0.31 2.59,1.08 3.95,1.4 0.27,0.05 0.18,0.05 0.36,0.09 0.23,0.09 0.55,0.18 0.77,0.23 0.14,0.05 0.28,0.09 0.41,0.09l1.18 0.32c0.55,0.13 1.18,0.23 1.68,0.36 0.23,0.09 0.5,0.09 0.73,0.18l1.58 0.37c0.28,0.04 0.59,0.04 0.91,0.09 1.09,0.27 2.23,0.36 3.36,0.59 1.09,0.22 2.36,0.18 3.58,0.27 1.96,0.18 4,0.18 5.95,0.14 0.63,0 1.22,-0.1 1.81,-0.14 1.64,-0.05 3,-0.18 4.5,-0.41 0.86,-0.14 1.77,-0.18 2.58,-0.36 0.5,-0.14 1.14,-0.27 1.68,-0.32 0.46,-0.09 4.22,-1.09 4.58,-1.23 0.55,-0.18 1.05,-0.27 1.55,-0.45 0.5,-0.18 1,-0.32 1.45,-0.5 0.27,-0.09 0.5,-0.18 0.77,-0.27l1.36 -0.5c0.41,-0.14 0.68,-0.27 1.05,-0.45 0.13,-0.05 0.22,-0.05 0.36,-0.14l2.09 -0.91c0.22,-0.09 0.4,-0.18 0.63,-0.31l1.32 -0.59c0.22,-0.14 0.41,-0.23 0.63,-0.37 0.82,-0.45 1.77,-0.86 2.59,-1.4 0.36,-0.23 0.82,-0.5 1.18,-0.73l0.54 -0.36c0.14,-0.09 0.5,-0.28 0.68,-0.37l1.73 -1.18c2.72,-1.77 5.76,-4.4 8.12,-6.67 0.32,-0.31 0.64,-0.63 0.95,-0.95 2.59,-2.5 6.08,-6.85 7.85,-9.8 0.46,-0.77 1.09,-1.63 1.55,-2.45 0.22,-0.41 0.5,-0.77 0.72,-1.23l1.32 -2.58c0.18,-0.41 0.41,-0.86 0.63,-1.32 0.37,-0.68 0.59,-1.36 0.96,-2.04 0,0 0,0 0,-0.05 0,0 0,0 0,0 0.04,-0.04 0.04,-0.04 0.04,-0.04l1 -2.72c0.09,-0.32 0.14,-0.46 0.27,-0.73 0.37,-0.95 1.09,-3.45 1.36,-4.49 0.14,-0.46 0.59,-1.95 0.59,-2.32 0.09,-0.54 0.41,-1.81 0.5,-2.45l0.23 -1.27c0,-0.13 0.05,-0.22 0.09,-0.36 0.23,-1.09 0.27,-2.45 0.41,-3.58 0.18,-1.14 0.18,-2.5 0.27,-3.64 0.18,-1.9 0.09,-4.71 0.05,-6.67 0,-2.13 0.63,-4.99 -0.68,-6.8 -0.23,-0.23 -0.41,-0.46 -0.68,-0.64 -0.14,-0.04 -0.23,-0.13 -0.37,-0.22 -0.13,-0.09 -0.27,-0.14 -0.41,-0.23 -0.04,-0.32 0.37,-1.27 0.46,-1.63 0.13,-0.64 0.27,-1.14 0.36,-1.77 0.23,-1.77 0.09,-2.32 -0.18,-3.91 -0.09,-0.45 -0.41,-1.18 -0.64,-1.54 -0.13,-0.27 -0.72,-0.86 -0.99,-1.13 -1.09,-0.87 -3.09,-1.05 -4.68,-0.87 -0.32,0.05 -0.82,0.23 -1.13,0.23 -0.09,-0.09 -0.14,-0.27 -0.23,-0.41 -0.32,-0.45 -0.73,-0.72 -1.18,-0.95 -1,-0.59 -2.31,-0.68 -3.54,-0.45 -0.41,0.09 -0.68,0.22 -1.04,0.31 -0.77,0.23 -1.82,0.96 -2.41,1.5 -0.36,0.36 -0.59,0.09 -1,0 -1.58,-0.41 -3.58,-0.32 -5.12,0.05 -0.68,0.13 -1.86,0.72 -2.27,0.77 0,-2.32 0.09,-3.9 -1.59,-5.58 -0.73,-0.73 -0.77,-0.55 -1.27,-0.87 -0.18,-0.13 -0.09,0 -0.14,-0.18 0.09,-0.22 -0.04,-0.04 0.14,-0.18 0.82,-0.45 1.41,-1.41 1.81,-2.22 1,-1.95 1.27,-5.18 -0.18,-6.94 -1.13,-1.41 -2.72,-1.23 -2.86,-1.37 -0.09,-0.09 0.55,-2.31 0.64,-2.67 0.45,-1.41 0.91,-3.63 0.91,-5.18l-0.05 -0.77c0.18,-0.09 0.27,-0.09 0.46,-0.18 0.09,-0.04 0.27,-0.14 0.36,-0.18 0.18,-0.14 0.54,-0.36 0.68,-0.5 0.86,-0.77 1.5,-1.59 2.09,-2.63 0.63,-1.09 1.04,-2.18 1.31,-3.36 0.14,-0.73 0.23,-1.32 0.23,-2.18 -0.05,-0.36 -0.05,-0.72 -0.09,-1.09 -0.09,-0.59 -0.32,-1.27 -0.64,-1.72 -0.18,-0.27 -0.41,-0.45 -0.54,-0.68 -0.36,0 -1.91,0.5 -2.41,0.59 -1.72,0.32 -3.54,0.45 -5.31,0.68 -1.45,0.18 -3.53,0.54 -4.67,1.27 -0.18,0.14 -0.32,0.18 -0.5,0.27 -0.18,0.09 -0.27,0.23 -0.41,0.32 -1.22,0.77 -2.04,2.27 -2.36,3.63 -0.13,0.41 -0.13,0.86 -0.27,1.22 -0.45,0.1 -0.95,-0.22 -2.27,-0.22 -1.59,0 -2.31,0.5 -2.81,0.32 -1.32,-0.46 -3.63,-0.59 -5.04,-0.14l-0.86 0.18c-1,0.36 -1.91,0.77 -2.81,1.32 -1.59,1 -0.68,0.86 -2.14,-0.37 -0.31,-0.27 -0.86,-0.63 -1.27,-0.81 -1.31,-0.5 -1.99,-0.73 -3.72,-0.73 -0.9,0 -1.9,0.05 -2.77,0.32l-0.86 0.23c-0.41,0.09 -1.13,0.31 -1.49,0.49 -0.41,0.23 -1,0.41 -1.46,0.64 -0.09,0.05 -0.22,0.18 -0.27,0.18 -0.09,0.05 -0.23,0.09 -0.36,0.18 -0.23,0.09 -0.46,0.28 -0.68,0.37 -0.91,0.4 -2.45,1.72 -3.18,2.49 -0.14,0.18 -0.14,0.18 -0.36,0.23 -0.18,-0.55 -0.27,-1.27 -0.36,-1.77 -0.19,-0.91 -0.41,-2.95 -0.46,-3.81 -0.04,-0.68 -0.09,-1.41 -0.18,-2.04 -0.32,-1.82 -0.5,-3.27 -1.54,-4.86 -0.28,-0.41 -0.96,-1.04 -1.46,-1.27 -1.54,-0.77 -3.26,-0.68 -4.85,-0.05 -1.04,0.37 -1.95,0.91 -2.81,1.5 -0.23,0.18 -0.37,0.32 -0.59,0.46 -0.55,0.36 -0.5,0.4 -0.78,0.9l-1.54 3.32c-0.41,0.81 -1.68,3.72 -2.04,4.4 -0.14,0.22 -0.23,0.45 -0.36,0.72 -0.23,0.55 -0.46,0.96 -0.68,1.45 -0.05,0.14 -0.14,0.23 -0.18,0.32 -0.37,0.55 -0.59,1.23 -0.91,1.77 -0.37,0.55 -0.55,1.23 -0.96,1.77 -0.09,0.14 -0.13,0.18 -0.18,0.36 -0.22,0.5 -1.22,2.32 -1.54,2.73 -0.41,0.5 -0.68,1.13 -1.04,1.63 -0.28,0.41 -0.59,0.05 -1.09,-0.27 -0.37,-0.23 -1,-0.55 -1.41,-0.68 -0.27,-0.14 -0.45,-0.23 -0.77,-0.32 -1.77,-0.54 -2.41,-0.82 -4.63,-0.82z"/>
  <polygon class="fil1" points="14.73,68.45 15.15,88.47 13.43,89.26 13.47,91.78 15.48,93.56 32,95.28 32.14,89.68 29.85,89.64 30.97,68.03 22.85,66.35 "/>
  <polygon class="fil2" points="66.39,109.76 77.31,110.93 77.91,95.58 71.94,93.66 65.83,95.58 "/>
  <polygon class="fil2" points="78.57,110.05 89.49,111.21 90.1,95.86 84.12,93.95 78.01,95.86 "/>
  <polygon class="fil2" points="78.71,86.81 89.63,87.98 90.24,72.63 84.26,70.71 78.15,72.63 "/>
  <polygon class="fil2" points="66.61,86.81 77.53,87.98 78.14,72.63 72.16,70.71 66.05,72.63 "/>
  <path class="fil2" d="M33.37 113.62l-0.09 -49.82 31.35 0 0 58.85c-16.52,-0.13 -26.86,-6.4 -31.26,-9.03z"/>
  <path class="fil3" d="M115.62 74.87c0,-0.91 -0.05,-1.54 -0.18,-2.36 -0.09,-0.5 -0.23,-0.68 -0.41,-1.31l-0.55 -1.23c-0.4,-0.82 -0.81,-1.45 -1.45,-2.09 -0.41,-0.45 -1.4,-1.31 -1.95,-1.58 -0.86,-0.5 -0.5,-0.32 -1.54,-0.78 -1.59,-0.72 -3.4,-0.63 -5.08,-0.36 -0.5,0.09 -1.27,0.41 -1.77,0.59 -0.87,0.41 -1.95,1.32 -2.68,2 -0.36,0.36 -0.73,0.81 -1.04,1.31l-0.46 0.73c-0.36,0.63 -0.45,0.95 -0.68,1.63 -0.09,0.27 -0.23,0.59 -0.32,0.86 -0.36,1.37 -0.04,7.49 -0.04,9.17 0,0.59 -0.05,1.73 0.04,2.22l0.23 9.08c0.05,1.54 0.05,3.04 0.05,4.58 0.04,2.91 0.18,6.17 0.22,9.08 0,0.68 -0.04,1.63 0.05,2.27 0.04,0.45 -0.05,2.08 0.09,2.22 0.14,0.14 0.86,-0.5 1,-0.64l0.5 -0.4c0,0 0.04,-0.05 0.04,-0.05l1.09 -0.77c0.14,-0.14 0.23,-0.14 0.36,-0.23l1.86 -1.63c0.96,-0.86 3,-2.68 3.82,-3.63l1.09 -1.18c0.45,-0.45 0.72,-0.86 1.08,-1.23l1.59 -1.9c0.41,-0.55 1.41,-1.77 1.68,-2.32 0.14,-0.22 0.14,-0.18 0.27,-0.31l0.91 -1.36c0.32,-0.46 0.59,-1 0.86,-1.46 0.09,-0.09 0.23,-0.22 0.28,-0.31 0.09,-0.19 0.04,-0.23 0.18,-0.41 0.54,-0.82 0.63,-0.87 0.63,-1.59l0.09 -6.99 0.14 -9.62z"/>
  <path class="fil3" d="M18.24 85.22c0.27,-0.05 2.04,-0.09 2.18,0.09 0.14,0.18 0.04,2.54 0.04,2.86 0,0.18 0,0.31 0,0.5 0,0.63 -0.13,0.49 -1.04,0.4 -0.41,0 -0.77,0 -1.13,-0.04 -0.14,-0.27 -0.14,-3.36 -0.05,-3.81zm9.08 4.22c-0.14,0.04 -1.68,-0.05 -2.05,-0.09l0.1 -3.91c0.36,-0.09 1.04,-0.04 1.45,-0.04 0.72,0 0.63,-0.09 0.59,1 0,0.45 0,2.76 -0.09,3.04zm-2.59 -0.18c-0.36,0.18 -0.45,0.13 -0.86,0.09 -0.32,-0.05 -0.68,0 -1.05,-0.05l-1.9 -0.14c-0.05,-0.49 0.04,-3.53 0.13,-3.9 0.46,-0.04 3.36,0 3.73,0.09l-0.05 3.91zm-6.49 -4.72c-0.09,-0.28 -0.09,-3 -0.04,-3.45 0.31,-0.05 0.81,-0.05 1.18,-0.05 0.77,0.05 1.08,-0.13 1.13,0.27l0 1.5c0,0.41 0.09,1.45 -0.09,1.73 -0.14,0.18 -2.04,0.09 -2.18,0zm7.22 0.13c-0.05,-0.09 -0.05,0 -0.05,-0.13 -0.04,-0.09 -0.04,-0.09 -0.04,-0.14l0.04 -0.86c0.32,-2.59 -0.91,-2.5 2.09,-2.32 0.04,0.19 0.04,3.32 -0.09,3.45 -0.09,0.09 -1.82,0.09 -1.95,0zm-4.45 -0.45c0,-0.59 0.04,-1.23 0.04,-1.82 0,-1.31 -0.13,-1.36 0.41,-1.36 0.5,0 3.13,0.05 3.41,0.18l-0.05 2.36c0,0.41 0.05,0.87 -0.09,1.14l-3.45 0c-0.32,0 -0.27,-0.18 -0.27,-0.5zm0.09 -6.58c0,-0.14 0,-0.27 0,-0.41 0,-0.27 0,-0.09 0.14,-0.27l3.04 0.04c0.45,0 0.4,-0.04 0.68,0.14l-0.05 2.86c0,0.72 0.23,0.59 -1.63,0.54 -0.32,0 -2.04,0.09 -2.18,-0.04 -0.18,-0.18 0,-2.45 0,-2.86zm-2.9 -0.68c0.4,-0.05 2.04,-0.05 2.31,0.04 0.09,0.23 0.09,3.09 0,3.36 -0.14,0.18 -2.22,0.09 -2.31,0.05l0 -3.45zm9.03 3.58c-2.05,0.05 -1.68,0.05 -1.68,-0.77 0,-0.86 0,-1.81 0.09,-2.63 0.32,-0.05 1.72,-0.05 1.95,0.05 0.14,0.27 0.04,1.27 0.04,1.67 0,0.32 -0.04,0.5 -0.04,0.82 0,0.23 0.04,0.64 -0.05,0.82l-0.31 0.04zm0.45 -4.13c-0.27,0.14 -0.86,0.05 -1.23,0.05 -0.63,0 -0.81,0.18 -0.81,-0.45 0.04,-0.5 -0.05,-2.14 0.13,-2.45 0.19,0 1.82,0.63 1.91,0.77 0.09,0.18 0.09,1.86 0,2.08zm-6.4 -0.09c-0.04,-0.04 -0.04,0.05 -0.04,-0.09l-0.05 -0.91c0.05,-2.67 -0.23,-2.45 0.86,-2.45 0.5,0 1.14,0 1.64,0.1l1.27 0.31c0.04,0.41 0.04,2.82 -0.05,3.04 -0.18,0.14 -0.63,0.09 -0.91,0.09 -0.63,0 -2.45,0.05 -2.72,-0.09zm-0.77 0.14c-0.59,0 -1.41,-0.05 -2.04,-0.05 -0.5,0 -0.36,-0.18 -0.36,-0.68 0,-2.31 -0.23,-1.54 0.95,-2.22l0.54 -0.23c0.37,-0.13 0.68,-0.31 1.05,-0.27l0 1.09c0,0.59 0.09,1.86 -0.14,2.36zm-2.99 1.41l0 11.43c0.54,0.18 0.72,0.09 1.31,0.14 0.45,0 0.45,0.09 1.32,0.09 0.31,0 0.68,-0.05 0.95,0 0.32,0 0.64,0.09 0.91,0.09 0.36,0.04 0.68,0.04 1,0.04 0.36,0.05 0.59,-0.04 0.9,0 0.37,0.05 0.64,0 1,0.05 0.91,0.04 0.82,0.09 1.91,0.09 0.27,0 0.68,0.05 0.91,0 0.18,-0.05 0.18,-0.23 0.13,-0.41 -0.04,-0.23 -0.13,-0.18 -0.04,-0.41 0.18,-0.54 -0.05,0.28 0.04,-0.18 0.05,-0.13 0.05,-0.27 0.05,-0.41 0,-0.41 -0.05,-0.81 0.04,-1.13 0.05,-0.18 0.05,-0.23 0.05,-0.41 0,-0.27 0,-0.54 0,-0.82 0,-0.36 -0.05,-0.5 -0.09,-0.81 0,-0.23 0.04,-0.55 0.04,-0.77 -0.04,-0.32 -0.13,-0.41 -0.13,-0.78 0.13,-0.04 0.13,-0.04 0.27,-0.09l0 -5.44c0,-1.59 0.09,-2.36 0,-3.99 0,-0.32 0.04,-0.41 -0.18,-0.55l-2.54 -0.91c-0.87,-0.27 -2.77,-0.5 -3.68,-0.41 -0.32,0.1 -1.54,0.19 -1.82,0.28 -0.18,0.04 -0.31,0.13 -0.49,0.22 -0.19,0.05 -0.41,0.05 -0.59,0.09 0,0.05 -0.14,0.14 -0.14,0.14 -0.05,0.05 -0.05,0.05 -0.14,0.09 -0.09,0.05 0,0 -0.13,0.09 -0.09,0 -0.14,0.05 -0.18,0.09l-0.23 0.14c-0.18,0.09 -0.32,0.14 -0.36,0.36 -0.05,0.18 0,0.46 0,0.68 -0.05,0.18 -0.09,0.32 -0.09,0.64 0,0.91 0,1.86 0,2.77z"/>
  <path class="fil3" d="M52 92.02c-0.23,-0.09 -0.18,-0.4 -0.18,-0.72l0 -2.73c0,-1.13 -0.14,-2.35 -0.05,-3.53 1.09,-0.1 5.59,0.09 7.36,0.09 0.18,0 0.36,0 0.54,0 0.54,0 0.32,0 0.41,0.09 0.09,0.09 0.09,-0.09 0.09,0.36l0 1.41c0,1.04 0.09,5.08 -0.09,5.49 -0.23,0 -0.59,-0.09 -0.91,-0.09l-5.08 -0.28c-0.68,-0.04 -1.41,-0.09 -2.09,-0.09zm6.17 -10.61c0.37,-0.05 0.77,-0.05 1.18,0 0.37,0 0.68,-0.05 0.91,0.04 0,0.59 0.09,2.68 -0.05,3.09 -0.4,0.04 -0.86,0 -1.27,0 -0.59,0 -0.63,0.09 -0.99,-0.09l0.22 -3.04zm-3.99 2.94c0,-0.59 0.04,-1.08 0.04,-1.58 0.05,-0.23 0.05,-0.55 0.05,-0.77 0,-0.73 -0.05,-0.41 0.09,-0.69l2.04 0.05c0.68,0.05 0.96,-0.09 1.23,0.18 0.04,1 -0.05,2 -0.09,2.95l-1.73 0c-0.63,0 -1.27,0.09 -1.63,-0.14zm-0.45 0c-0.14,0.19 -0.32,0.1 -0.59,0.1 -1.77,0 -1.41,0.49 -1.41,-1.86 0,-0.69 -0.09,-0.73 0.09,-1.23 0.36,0 0.73,0 1.04,0 0.59,0 1.09,-0.18 1,0.36 -0.04,0.28 -0.04,-0.04 -0.09,0.32l0 2.04c0,0.18 0.05,0.18 -0.04,0.27zm4.58 -3.53c-0.18,-0.14 -0.05,-0.14 0,-0.46 0.04,-0.13 0,-0.41 0.04,-0.59 0.05,-1.22 -0.04,-1.04 0.68,-0.81 0.64,0.18 0.28,-0.05 0.64,0.22l0.59 0.27c0.05,0.37 -0.05,0.41 -0.05,0.73 -0.04,0.86 0.19,0.73 -1.13,0.68 -0.27,0 -0.68,0.09 -0.77,-0.04zm-3.95 -0.05c-0.04,-0.36 0.05,-0.86 0.05,-1.32 0,-0.54 -0.09,-0.86 0.13,-1.18 0.5,0 3.04,-0.04 3.22,0.41 0,0 0,2.04 -0.13,2.14 -0.14,0.13 -1.41,0.04 -1.68,0.04 -0.59,0 -1.14,0.05 -1.59,-0.09zm-2.68 -1.36c0.46,-0.32 0.64,-0.32 1.14,-0.55 0.32,-0.13 1.13,-0.68 1.09,-0.13 -0.14,2.22 0.22,2.09 -0.59,2.09 -0.41,0 -1.32,0.04 -1.64,-0.1l0 -1.31zm-0.5 1.72l0.14 10.98c0,1.14 0.36,0.64 2.77,0.82 0.77,0.05 6.12,0.32 6.58,0.27l0.04 -14.52 -1.13 -0.5c-0.41,-0.09 -0.77,-0.22 -1.23,-0.36 -1.27,-0.41 -4.17,-0.63 -5.49,0l-0.68 0.32c-0.54,0.41 -1.04,0.32 -1.04,0.95 0.04,0.68 0.04,1.36 0.04,2.04z"/>
  <path class="fil3" d="M70.74 82.72c0.41,-0.04 2.45,-0.04 2.68,0.05 0.04,0.04 0.04,0 0.09,0.13 0,0.09 0,0.09 0,0.18 0,0.28 0,2.5 -0.09,2.59 -0.05,0.05 0.04,0 -0.14,0.05l-0.5 0c-0.31,0 -1.95,-0.09 -2.04,-0.14 -0.18,-0.18 -0.04,-2.5 0,-2.86zm-0.5 -0.04c0.05,0.36 0,1.58 0,2.08l-0.04 0.64c0,0.09 -0.05,0.13 -0.32,0.13l-1.09 -0.04c-0.23,-0.09 -0.14,-0.91 -0.14,-1.36l0 -1.14c0,-0.4 0,-0.4 1.59,-0.31zm5.31 3.08l-0.09 0.14c-0.54,0.04 -1.13,0 -1.63,-0.09 0,-0.46 0.04,-2.82 0.18,-3.09l1.5 0c0.22,0.32 0.09,1 0.09,1.45 0,0.5 0,1.14 -0.05,1.59zm-2.04 -6.17l0.05 2.63 -2.77 -0.04c-0.05,-0.32 0,-1.77 0,-2.27 0,-0.23 -0.05,-0.23 0.09,-0.32 0.09,-0.09 2.36,-0.05 2.63,0zm-3.18 -0.05l0 2.64c-0.22,0.04 -1.31,0.04 -1.49,0 -0.37,-0.05 -0.23,-0.59 -0.23,-1.32 0,-0.27 0,-0.5 0,-0.77 0,-0.32 -0.14,-0.55 0.18,-0.59 0.09,0 1.36,0 1.54,0.04zm5.27 2.68c-0.32,0.05 -1.27,0.09 -1.5,0 -0.05,-0.09 -0.05,-0.04 -0.05,-0.13l0 -1.14c0.05,-0.45 0,-0.91 0.05,-1.31 0.32,-0.05 0.68,0 1.04,0 0.5,-0.05 0.55,-0.05 0.5,0.49 -0.09,0.69 0,1.41 -0.04,2.09zm-4.81 -4.13c0,-0.5 -0.14,-1.36 0.09,-1.68 0.36,-0.04 1,0.05 1.4,0.05 0.46,0 1.09,-0.09 1.41,0.09l-0.04 1.09c0,1.04 0.22,1.41 -0.28,1.45l-1.99 0c-0.55,0 -0.59,0.05 -0.64,-0.27l0.05 -0.73zm3.36 1c-0.05,-0.45 0,-1.18 0,-1.63 0.04,-1 -0.19,-0.96 0.77,-0.96 0.95,0.05 0.77,-0.09 0.77,0.96 0,0.27 0.09,1.54 -0.09,1.59 -0.23,0.09 -0.41,0.04 -0.68,0.04 -0.28,0 -0.5,0 -0.77,0zm-3.86 -0.09c-0.18,0.09 -0.82,0.05 -1.09,0.05 -0.55,0 -0.64,0.09 -0.64,-0.5 0,-0.55 -0.09,-1.64 0,-2.14 0.37,-0.04 1.46,-0.09 1.73,0 0.13,0.14 0.09,1.91 0.04,2.32l-0.04 0.27zm3.95 -2.95c-0.05,-0.27 -0.05,-2.04 0.04,-2.13 0.14,-0.14 0.23,0 0.36,0.04 0.32,0.19 0.68,0.19 1.14,0.5l-0.05 1.59 -1.49 0zm-0.64 -0.09c-0.23,0.18 -1,0.09 -1.36,0.09 -1.68,0 -1.41,0.27 -1.36,-1.45 0,-0.55 -0.09,-0.86 0.09,-1.27 0.68,-0.05 2,0 2.49,0.23 0.23,0.09 0.23,0.22 0.23,0.45l0 1.72c-0.04,0.23 0,0.14 -0.09,0.23zm-5.08 -1.77c0.41,-0.32 1.5,-0.82 1.9,-0.77l0 0.68c0,2.31 0.32,1.91 -1.45,1.86 -0.59,0 -0.45,-0.05 -0.45,-0.64 0,-0.36 -0.05,-0.77 0,-1.13zm1.18 -1c-0.09,0 -0.18,0.05 -0.27,0.09 -0.19,0.09 -0.14,0.05 -0.32,0.09 -0.23,0.09 -0.36,0.23 -0.59,0.28 -0.14,0.31 -0.27,0.04 -0.36,0.4 -0.1,0.37 0,9.49 0,10.99 0,0.27 0,0.4 0.04,0.63 0.36,0.14 5.72,0.32 6.67,0.36 1.41,0.09 0.86,0.23 1.04,-2.36 0,-0.31 0.05,-0.54 0,-0.86l0.1 -4.26c-0.05,-0.59 0,-1.18 0,-1.73 0,-0.59 0.04,-1.18 0.04,-1.77 0,-0.18 -0.04,-0.31 -0.04,-0.45 0,-0.18 0.04,-0.23 0.04,-0.36 0,-0.28 -0.27,-0.32 -0.45,-0.37l-0.64 -0.27c-0.36,-0.18 -1.68,-0.5 -2.09,-0.54 -0.31,-0.05 -0.4,-0.09 -0.72,-0.09 -0.64,0 -1.59,-0.1 -2.04,0.13 -0.18,0.09 -0.18,0.09 -0.41,0.09z"/>
  <path class="fil3" d="M85.53 82.99c0.19,0.23 0.05,2.73 0,2.86 -0.22,0.09 -1.58,0 -2.04,-0.04 -1,0 -0.63,0.18 -0.68,-2.5 0,-0.59 0.09,-0.45 0.64,-0.45l1.54 0.04c0.09,0 0.18,0 0.27,0 0.09,0 0.09,0 0.14,0.05 0.13,0 0.09,0 0.13,0.04zm2.05 3l-1.55 -0.05 0.05 -2.95 1.54 0c0.09,0.73 0,2.27 -0.04,3zm-5.18 -2.32c-0.04,2.27 0.23,2.09 -0.81,2.05 -0.28,0 -0.64,0.04 -0.82,-0.05 -0.05,-0.59 -0.09,-3.08 0.05,-2.81 0,0 0.04,0 0.04,0 0.18,-0.05 0.77,-0.05 1,-0.05 0.82,0 0.54,0.14 0.54,0.86zm3.23 -3.9c0.13,0.23 0.13,2.41 0,2.59 -0.14,0.13 -1.82,0.04 -2,0.04 -0.64,0 -0.77,0.14 -0.77,-0.27 -0.05,-0.27 0,-0.72 0,-1.04 0,-1.55 -0.18,-1.36 0.77,-1.36 0.41,0 1.72,-0.05 2,0.04zm2.13 2.09c0,0.68 0.04,0.63 -0.82,0.63 -0.36,0 -0.54,0 -0.82,-0.04 -0.04,-0.41 0,-1.04 0,-1.45 0,-0.41 -0.04,-1 0.14,-1.23l1.41 0c0.18,0.27 0.09,0.5 0.09,0.91 0,0.41 0,0.82 0,1.18zm-5.31 -0.09c0,0.54 0,0.59 -0.27,0.63l-1.41 0c-0.14,-0.45 -0.09,-2.08 -0.09,-2.72 0.32,-0.04 0.68,0 0.95,0 1.18,0 0.77,-0.27 0.82,2.09zm5.31 -2.59c-0.23,0.18 -0.55,0.09 -1,0.09 -0.64,0 -0.54,0 -0.45,-0.5 0.04,-0.63 -0.09,-1.49 0.04,-2.08l1.45 0.04c0.05,0.27 0.05,2.27 -0.04,2.45zm-7.04 -0.04c-0.13,-0.23 -0.04,-1.5 -0.04,-2 0,-0.27 -0.09,-0.5 0.09,-0.54 0.05,0 1.23,0 1.36,0 0.32,0 0.32,0 0.32,0.36l0 2.27 -1.68 -0.05c0,-0.04 -0.05,-0.04 -0.05,-0.04zm2.18 -0.77c0,-1.46 -0.13,-1.73 0.37,-1.73 3.13,0 2.49,-0.14 2.49,0.86 0,0.37 0.05,1.46 -0.09,1.68 -0.09,0.18 -2.13,0.09 -2.31,0.09 -0.59,0 -0.46,0 -0.46,-0.9zm3.36 -2.18c0,-0.14 0.09,-2.14 0.09,-2.14 0.18,-0.27 1.09,0.37 1.54,0.46 0.05,0.45 0.09,1.5 -0.09,1.77 -0.45,0.04 -1.22,0.09 -1.54,-0.09zm-3.31 -0.05c-0.05,-0.54 -0.09,-2.31 0.09,-2.63 0.77,-0.09 2.31,0.05 2.77,0.32 0.04,0.45 0,1.36 0,1.9 0.04,0.68 -0.09,0.5 -1.14,0.5 -0.41,0 -1.45,0.09 -1.72,-0.09zm-2.32 -1.22c0,-0.82 0.09,-0.59 0.68,-0.91 0,0 0,0 0,0l0.55 -0.27c0.18,-0.09 0.41,-0.09 0.68,-0.05 0,0.23 0.05,2.36 -0.05,2.45 -0.09,0.09 -1.54,0.14 -1.86,-0.04l0 -1.18zm6.63 -1.18c-0.27,-0.09 -1,-0.41 -1.23,-0.37 -0.36,0.05 -1.09,-0.13 -1.58,-0.18 -0.78,-0.09 -2.32,0 -3,0.41 -0.27,0.18 -0.41,0.14 -0.59,0.23 -0.14,0.09 -0.09,0.13 -0.23,0.22 -0.09,0.05 -0.22,0.1 -0.31,0.14 -0.09,0.77 -0.05,11.3 0.04,11.57 0.09,0.14 1.68,0.23 1.82,0.23 0.54,0 1.36,0.04 1.9,0.09 0.64,0.09 1.41,0.04 1.95,0.09 0.41,0.09 1.55,0.14 1.91,0.05 0.14,-0.37 0.09,-2.73 0.09,-3.27l-0.23 -0.09c-0.13,-0.05 -0.22,-0.18 -0.04,-0.27 0.13,-0.05 0.09,0.04 0.27,-0.05l0.09 -8.3c-0.23,-0.14 -0.23,-0.19 -0.45,-0.23 -0.18,-0.05 -0.09,0.04 -0.23,-0.05 -0.09,-0.09 -0.04,-0.04 -0.09,-0.09l-0.09 -0.13z"/>
  <path class="fil3" d="M87.21 108.81c-0.59,0.09 -5.17,-0.27 -6.26,-0.27 -0.41,0 -0.54,0.09 -0.54,-0.32l0 -5.71c0.5,0 4.67,0 5.31,0.04 0.99,0.14 1.58,-0.18 1.68,0.27 0,0.05 0,0.18 0,0.23 0,1 -0.1,5.54 -0.19,5.76zm-4.62 -6.76c-0.14,-0.18 -0.05,-1.9 -0.05,-2.13 0,-0.55 0.05,-0.5 0.59,-0.5 0.41,0 1.91,-0.05 2.27,0.14 -0.05,0.77 0.04,1.72 -0.09,2.49 -0.27,0.14 -2.54,0.09 -2.72,0zm-0.5 -0.09c-0.09,0.05 -0.05,0 -0.14,0.05 -0.09,0 -0.05,0 -0.14,0 -0.09,0 -0.22,0 -0.27,0 -1,0 -1.22,0.18 -1.22,-0.41 0,-0.64 -0.09,-1.54 0,-2.18 0.27,-0.05 0.59,0 0.9,0 0.46,0 0.82,-0.09 0.91,0.18l0 0.46c0,0.49 0.05,1.67 -0.04,1.9zm5.21 0.05c-0.04,0.09 0.05,0.13 -0.45,0.09 -1.18,0 -1.09,0.18 -1.09,-0.55 0.05,-0.59 0.05,-1.4 0.14,-1.99l1.4 0c0.05,0 0.1,0 0.14,0.09 0,0.04 0,0.04 0,0.04 0,0.05 0,0.05 0,0.05l-0.04 1.72c0,0.41 0.04,0.46 -0.1,0.55zm-4.71 -3.04c-0.1,-0.46 0,-1 0,-1.46 0.04,-0.81 -0.1,-1.18 0.27,-1.22 0.5,-0.05 2.31,0.14 2.63,0.36l0 1.32c0,0.45 0.04,0.86 -0.09,1.09 -0.55,0 -2.5,0.09 -2.81,-0.09zm4.85 0.04c-0.23,0.09 -0.63,0.05 -0.95,0.05 -0.46,0 -0.59,0.09 -0.59,-0.37 0,-0.54 0,-1.4 0.13,-1.81 0.32,-0.05 1.37,0.5 1.46,0.59 0.04,0.36 0.09,1.27 -0.05,1.54zm-7.17 -1.81c0.45,-0.28 1.14,-0.73 1.86,-0.73l0 2.22c-0.04,0.5 -0.32,0.28 -1.22,0.28 -0.64,0.04 -0.64,0.09 -0.64,-0.5l0 -1.27zm-0.45 2.76l0 8.4c0,0.73 0.31,0.45 1.63,0.54 0.23,0 0.82,0 1.04,0.05 0.19,0.04 0.14,0.04 0.41,0.09 0.23,0 0.41,0 0.59,0 0.59,0.09 1.5,0.05 2.14,0.05 0.63,0 1.54,0.18 2.08,0.04l0.18 -12.21c-0.18,-0.04 -0.36,-0.13 -0.49,-0.18 -0.19,-0.04 -0.1,0 -0.23,-0.09l-0.73 -0.32c-0.45,-0.09 -0.27,-0.09 -0.54,-0.18l-1.18 -0.18c-0.5,-0.09 -0.73,-0.13 -1.27,-0.13 -0.59,0 -1.27,0.04 -1.77,0.18 -0.46,0.13 -0.55,0.31 -1,0.45 -0.23,0.05 -0.14,0.05 -0.32,0.14 -0.77,0.54 -0.41,0.45 -0.54,1.4 -0.05,0.5 0,1.41 0,1.95z"/>
  <path class="fil3" d="M68.29 102.32c1.05,-0.04 2.45,-0.04 3.54,0 0.55,0.05 1.09,0.05 1.68,0.05 1.45,0 1.81,-0.18 1.77,0.41l-0.09 2.67c0,0.55 0.04,2.86 -0.09,3.14 -0.14,0.09 -6.17,-0.23 -6.81,-0.32l0 -5.95zm2.18 -3.04c0.27,-0.22 1.68,-0.09 2.13,-0.09 0.37,0 0.59,0 0.77,0.14 0,0.86 0.05,1.77 -0.04,2.63l-1 0c-0.32,0 -1.63,0.09 -1.91,-0.14l0.05 -2.54zm3.31 2.59c-0.13,-0.14 -0.04,-1.45 0,-1.68 0.09,-1 -0.27,-0.91 0.82,-0.91 1,0 0.77,-0.04 0.77,1 0,0.5 0.09,1.27 -0.09,1.64 -0.27,0.04 -0.54,0 -0.77,0 -0.36,0 -0.59,0.09 -0.73,-0.05zm-5.53 -0.05c-0.09,-0.27 -0.09,-2.17 -0.05,-2.58 0.32,-0.05 0.64,-0.05 0.95,-0.05l0.73 0.05c0.23,0 0.05,-0.05 0.18,0.04 0.09,0.14 0.05,1.09 0.05,1.27 0,0.37 0.04,1 -0.05,1.27 -0.23,0.1 -1.59,0.1 -1.81,0zm2.27 -4.9c0,-0.86 -0.1,-0.81 0.77,-0.81 0.5,0 0.95,0.09 1.4,0.18 0.87,0.18 0.68,-0.05 0.68,1.77 0,0.27 0.05,0.59 -0.09,0.72 -0.13,0.14 -2.49,0.05 -2.76,-0.04l0 -1.82zm4.85 1.86c-0.32,0.05 -0.63,0 -0.95,0.05 -0.77,0 -0.55,0.27 -0.5,-2.09 0.41,-0.04 1.22,0.32 1.5,0.5l-0.05 1.54zm-7.17 -1.77c0.41,-0.36 0.86,-0.49 1.36,-0.63 0.64,-0.18 0.55,-0.41 0.55,1.13 0,0.37 0,0.91 0,1.27 -0.32,0 -0.68,0 -0.96,0 -0.77,0 -0.9,0.1 -0.95,-0.27l0 -0.63c0,-0.28 -0.04,-0.59 0,-0.87zm-0.5 0.46l0 10.62c0,0.04 0,0.18 0,0.27 0.05,0.32 0.05,0.32 0.95,0.32 0.37,0.04 0.69,0.04 1.05,0.04 0.32,0 0.63,0.05 0.91,0.09l4.53 0.18c0.5,0.05 0.5,0.19 0.5,-0.99l0.05 -4.04c0.04,-0.86 0.09,-2.14 0.04,-2.95 -0.04,-1.41 0.05,-2.27 0.09,-3.63 0,-0.59 0,-0.59 -0.45,-0.82 -0.14,-0.04 -0.23,-0.13 -0.41,-0.18l-0.95 -0.32c-0.05,0 -0.18,-0.04 -0.27,-0.04l-0.68 -0.18c-0.19,-0.1 -0.32,-0.1 -0.55,-0.14 -0.82,-0.05 -2.27,-0.05 -3.08,0.18 -0.5,0.18 -1.18,0.59 -1.32,0.64 -0.5,0.22 -0.41,0.22 -0.41,0.95z"/>
  <path class="fil3" d="M43.43 67.02c0,1.77 -2,2.18 -2.77,1.14 -0.18,-0.28 -0.23,-0.23 -0.37,-0.46 -0.22,-0.5 -0.04,-1.59 0.37,-1.9 0.31,-0.28 0.63,-0.55 1.22,-0.46 0.73,0.09 1.14,0.41 1.41,1 0.14,0.18 0.14,0.41 0.14,0.68zm-4.22 0.09c0,0.55 0.09,0.59 0.27,1 0.27,0.5 0,0.23 0.5,0.82 0.31,0.41 0.5,0.41 0.9,0.68l0.78 0.18c0.59,0.04 0.99,-0.14 1.54,-0.36 0.27,-0.14 0.13,-0.14 0.32,-0.37 0.22,-0.22 0.45,-0.45 0.54,-0.77 0.18,-0.77 0.27,-0.18 0.27,-1.04 0,-0.18 0.05,-0.46 0,-0.64l-0.36 -1c-0.14,-0.27 -0.73,-0.95 -0.95,-1.04 -0.59,-0.18 -0.59,-0.27 -1.14,-0.27 -0.68,0 -0.63,0 -1.09,0.23 -0.27,0.13 -0.63,0.36 -0.81,0.59 -0.5,0.54 -0.18,0.13 -0.41,0.59 -0.23,0.45 -0.09,0.18 -0.27,0.77 -0.09,0.18 -0.09,0.36 -0.09,0.63z"/>
  <path class="fil4" d="M27.63 50.64c0,-1.41 -0.18,-2.68 -0.63,-3.81 -0.18,-0.46 -0.5,-1.14 -0.73,-1.5 -0.09,-0.09 -0.18,-0.18 -0.27,-0.32l-0.68 -0.9c-1.27,-1.55 -3.22,-2.86 -4.63,-4.22 -0.86,-0.78 -1.59,-1.37 -2.22,-2.23 -0.77,-1.04 -1.05,-1.77 -1,-3.45 0.09,-2.72 2.13,-4.08 4.76,-4.08 0.69,0 1.37,0 2,0.27 1.63,0.73 2.04,1.41 3,2.63 0.27,0.37 0.31,0.59 0.36,0.73 0.23,0 0.59,-0.18 0.77,-0.27 0.41,-0.27 1.18,-1.09 1.45,-1.54 0.14,-0.19 0.27,-0.5 0.37,-0.73l0.22 -0.77c0.23,-1.27 -0.68,-2.59 -1.86,-3.18 -0.54,-0.32 -1.77,-0.54 -2.45,-0.68 -1.86,-0.27 -2.95,-0.04 -4.76,0.18 -0.32,0.05 -0.77,0.18 -1.14,0.32 -1.31,0.45 -1.81,0.59 -2.99,1.41 -1.32,0.9 -1.95,1.49 -3,2.81 -1.31,1.63 -2.18,4.4 -2.18,6.58 0,2.77 0.96,4.54 2.77,6.35 2.18,2.13 5.81,4.22 6.76,6.85 0.73,2 0.41,4.59 -1.13,6.08 -0.5,0.5 -1.14,0.78 -1.77,1.05 -0.14,0.04 -0.27,0.09 -0.41,0.13 -0.63,0.23 -1.18,0.28 -2,0.28 -1.9,0 -3.13,-0.5 -4.31,-1.55 -0.68,-0.63 -1.4,-1.9 -1.54,-2.81 -0.04,-0.5 -0.04,-0.82 -0.04,-1.36 -0.41,-0.05 -1.09,0.41 -1.41,0.59 -1.14,0.72 -2.18,2.13 -2.5,3.45 -0.4,1.68 0.87,3.31 1.95,3.81 0.19,0.14 0.46,0.27 0.64,0.41 0.14,0.04 0.18,0.09 0.32,0.13 0.27,0.14 0.13,0 0.13,0.09l1.14 0.41c1.72,0.55 3.54,0.68 5.35,0.5l2 -0.36c0.5,-0.14 0.86,-0.32 1.09,-0.41 1.54,-0.54 2.72,-1.22 4.04,-2.22 0.18,-0.14 0.27,-0.23 0.41,-0.37 0.99,-0.68 2.22,-2.26 2.81,-3.4 0.72,-1.32 1.31,-3.04 1.31,-4.9zm7.88 -2.99c-3.9,1.18 -5.85,14.43 -2.13,10.39 1.04,-1.13 2.81,-4.03 3.45,-5.44 0.32,-0.77 1.22,-2.41 1.31,-3.18 0.14,-1.13 -1.58,-2.04 -2.63,-1.77zm68.93 0c-3.45,1.73 -5.31,13.8 -0.91,11.98 3.41,-1.4 5.08,-14.02 0.91,-11.98zm-15.43 0.27c-4.31,1.96 -5.76,13.8 -2.13,10.21 1.22,-1.18 2.81,-3.9 3.54,-5.44 0.32,-0.59 1.36,-2.63 1.31,-3.13 -0.09,-1 -1.68,-2.13 -2.72,-1.64zm-15.61 -0.27c-4.17,1.55 -5.81,14.39 -2.27,10.53 1.05,-1.13 2.86,-4.13 3.54,-5.54 0.27,-0.59 1.27,-2.76 1.32,-3.22 0.13,-0.95 -1.59,-2.13 -2.59,-1.77zm-9.42 5.17c0.18,-0.36 0.32,-0.46 0.59,-1 0.45,-0.86 1.14,-2.22 1.45,-3.22 0.28,-0.95 0.73,-2.45 -0.22,-3.31 -0.73,-0.68 -2.86,-0.78 -3.41,-0.5 0,0.27 0.09,0.22 0.23,0.4l0.14 0.41c0.45,1 0.13,2.09 -0.1,3.09 -0.04,0.36 -0.22,0.54 -0.31,0.86 -0.09,0.32 -0.18,0.59 -0.32,0.86 -0.18,0.28 -0.27,0.64 -0.41,0.82 -0.36,0.59 -0.91,1.68 -1.27,2.36 -0.23,0.45 -1,1.68 -1.36,2.22 -0.18,0.23 -0.32,0.5 -0.45,0.73l-0.64 0.91c-0.14,0.18 -0.23,0.36 -0.41,0.4l0.05 -2.35c0,-0.78 0,-1.59 0,-2.32 -0.05,-0.77 -0.18,-1.45 -0.18,-2.22 -0.05,-0.82 -0.09,-1.45 -0.19,-2.23 -0.13,-1.4 -0.18,-2.76 -1.49,-3.26 -0.46,-0.18 -1.68,0 -2.14,0.18l-0.77 0.36c-0.18,0.09 -0.5,0.23 -0.68,0.41l-0.04 0.09c0.04,0.32 0.13,0.18 0.41,0.73 0.09,0.13 0.27,0.5 0.36,0.68 0.18,0.54 0.27,1.22 0.45,1.77 0.23,0.77 0.23,1.72 0.37,2.36 0.04,0.18 0.04,0.36 0.04,0.5l0.23 1.99c0,0.37 0.04,0.68 0.04,1 0.14,1.27 0.14,2.95 0.14,4.22 0,0.18 -0.09,2 0.04,2.13 0.41,0.19 1.55,-0.04 1.91,-0.18 0.41,-0.13 1.09,-0.41 1.45,-0.63 1.18,-0.77 1.82,-1.64 2.68,-2.59 0.54,-0.73 0.82,-1 1.36,-1.81 0.64,-0.96 1.86,-2.82 2.45,-3.86zm39.57 -7.08c-2.04,0.77 -3.18,1.77 -4.54,3.49 -0.63,0.77 -0.86,1.41 -1.31,2.18 -0.46,0.68 -0.64,2 -0.91,2.81 -0.09,0.23 -0.18,1.5 -0.18,1.77 0,0.41 0.09,0.69 -0.23,1 -0.32,0.32 -1.41,1.73 -1.86,1.5 -0.64,-0.54 -0.32,-2.13 -0.18,-2.95 0.09,-0.68 0.36,-2.31 0.54,-2.95 0.09,-0.18 0.14,-0.5 0.18,-0.72 0.09,-0.28 0.14,-0.46 0.19,-0.69 0.13,-0.49 0.22,-0.95 0.36,-1.4 0.04,-0.23 0.09,-0.5 0.18,-0.73 0.09,-0.5 0.27,-0.86 0.32,-1.4 0.04,-0.32 0.45,-1.64 0.5,-2.09 0.09,-0.46 0.22,-0.91 0.36,-1.41 0.04,-0.23 0.04,-0.5 0.14,-0.77 0.04,-0.27 0.13,-0.41 0.13,-0.68 0.27,-1.59 0.5,-3.31 -1.63,-3.22 -1.18,0 -1.82,0.36 -2.68,0.81 0,0.28 0.14,0.41 0.18,0.68 0.14,0.82 -0.09,3.09 -0.27,3.91l-0.32 1.31c-0.32,0.05 -0.27,-0.09 -0.59,-0.22 -1.59,-0.64 -3.54,-0.68 -4.99,0.22 -0.77,0.5 -1.41,0.91 -2,1.5 -0.77,0.77 -1.72,1.91 -2.22,2.95l-0.63 1.13c-0.09,0.19 -0.19,0.5 -0.28,0.69l-0.36 0.9c-0.04,0.09 -0.09,0.18 -0.09,0.32 -0.09,0.23 -0.14,0.41 -0.23,0.64 -0.13,0.4 -0.27,0.99 -0.31,1.4 -0.05,0.41 -0.1,1.23 -0.28,1.45 -0.41,0.46 -1.31,1.55 -1.95,1.55 -0.5,-0.77 -0.13,-2.5 0,-3.45 0.09,-0.59 0.18,-1.09 0.32,-1.63 0.18,-0.69 0.27,-1.87 0.54,-2.46 0.23,-0.59 0.23,-1.04 0.46,-1.54 0.18,-0.54 0.27,-1.04 0.41,-1.54 0.13,-0.36 0.81,-1.86 0.81,-2.04 -0.41,-0.37 -1.59,-0.64 -2.17,-0.68 -1.41,-0.14 -1.82,0.63 -2.14,0.72 -0.45,-0.09 -0.63,-0.41 -1.09,-0.5 -0.04,-0.09 0.05,0.14 0,-0.04 -0.36,-0.05 -0.59,-0.14 -0.9,-0.18 -1.18,-0.19 -1.64,0.04 -2.68,0.27 -0.05,0.13 0,0.04 0,0.04 -0.59,0.14 -1.23,0.55 -1.63,0.82 -1.37,0.91 -2.5,2.32 -3.36,3.77 -0.32,0.5 -0.59,1.04 -0.82,1.54 -0.27,0.54 -0.45,1.18 -0.63,1.72 -0.69,2 -1.41,6.18 0.36,7.72 1.18,1.04 3.36,0.72 4.54,-0.23 1.54,-1.22 2.49,-2.49 3.54,-4.17 0.09,-0.18 0.09,-0.23 0.31,-0.28 0,1.46 -0.5,3.41 0.59,4.59 0.37,0.36 0.55,0.54 1.14,0.68 1.72,0.45 3.13,-0.86 4.17,-2 0.18,-0.23 0.18,-0.41 0.46,-0.36 0.13,0.32 0.09,0.5 0.27,0.82 0.45,0.86 0.91,1.18 1.77,1.54 1.04,0.41 2.67,-0.36 3.36,-0.86 1.36,-0.91 2.26,-2.14 3.17,-3.36 0.14,-0.23 0.32,-0.5 0.46,-0.68 0.13,-0.23 0.18,-0.59 0.45,-0.64 0,0.09 -0.14,1.41 -0.14,1.73 -0.04,0.72 0,1.13 0.09,1.81 0.19,1 0.96,1.77 2,1.86 1.27,0.14 2.13,-0.41 2.86,-1 0.68,-0.5 1.18,-1.09 1.63,-1.72 0.09,-0.09 0.05,-0.05 0.14,-0.14 0.09,-0.09 0,-0.04 0.13,-0.09 0.1,0.14 0.14,0.32 0.23,0.46 0.77,1.58 2.36,2.67 4.18,2.72 0.59,0.04 0.99,0.04 1.49,-0.05 1.18,-0.22 2.32,-0.63 3.32,-1.31 1.31,-0.96 2.54,-2.27 3.31,-3.68 0.09,-0.13 0.18,-0.36 0.27,-0.5 0.32,-0.45 0.77,-1.95 0.91,-2.08 0.18,-0.1 0.68,-0.1 1.04,-0.28 0.09,-0.09 0.14,-0.09 0.23,-0.13 0.82,-0.5 1.86,-1.91 2.18,-2.68l0.5 -1.13c0.86,-1.68 0,-1.37 1.81,-1.55 0.32,0 0.46,-0.04 0.77,-0.09 0.14,0 0.23,-0.04 0.37,-0.04 0.09,0 0.09,0 0.18,0 0.18,0 0.18,0 0.18,0.18l0 0.27c-0.05,0.14 -0.09,0.27 -0.14,0.36 -0.09,0.28 -0.13,0.46 -0.22,0.73 -0.19,0.77 -0.46,1.45 -0.68,2.18 -0.1,0.27 -0.14,0.5 -0.23,0.77 -0.05,0.23 -0.18,0.5 -0.27,0.68l-0.41 1.5c-0.05,0.18 -0.18,0.45 -0.23,0.68 -0.18,1.04 -1.18,3.54 -0.54,4.9 0,0 0,0 0,0 0.04,0.13 0.4,0.59 0.86,0.82 0.54,0.27 0.95,0.36 1.63,0.31 1.82,-0.04 4.13,-2.49 4.72,-3.81 0.14,-0.23 0.23,-0.41 0.32,-0.63 0.18,-0.37 0.45,-1.05 0.32,-1.5 -0.32,-0.05 -0.32,0.04 -0.5,0.23 -0.18,0.13 -0.32,0.18 -0.46,0.36 -0.27,0.27 -0.54,0.5 -0.81,0.77 -0.32,0.27 -1.23,1.32 -1.82,1.32 -0.18,-0.23 -0.18,-0.32 -0.18,-0.73 0,-0.95 0.09,-1.36 0.36,-2.27 0.14,-0.5 0.23,-0.86 0.41,-1.41 0.05,-0.22 0.14,-0.4 0.18,-0.63 0.23,-0.91 0.87,-2.41 1.14,-3.27 0.13,-0.45 0.27,-0.86 0.36,-1.36 1.23,-6.08 -3.86,-2.4 -7.62,-2.95 -2.27,-0.32 -0.91,-1.59 -1.23,-1.9 -0.04,-0.1 -0.22,-0.1 -0.41,0 -0.13,0.04 -0.18,0.09 -0.27,0.18 -1,0.72 -1.72,2.27 -1.18,3.49 0.09,0.23 0.23,0.41 0.41,0.59 0.18,0.14 0.5,0.27 0.64,0.41 0.04,0.5 -0.14,1.63 -0.28,2.04 -0.09,0.27 -0.18,0.55 -0.27,0.82 -0.14,0.27 -0.18,0.63 -0.45,0.72 0,-0.77 0.13,-1.45 0.09,-2.31 -0.09,-1.23 -0.59,-2.41 -1.41,-3.22 -1.27,-1.32 -3.45,-1.77 -5.31,-1.27 -0.36,0.09 -0.63,0.13 -0.95,0.27zm-51.14 10.44c-0.32,0 -0.54,0.13 -0.77,0.31 -0.46,0.32 -1.14,1 -1.64,1.32 -0.63,0.36 -2.04,1.5 -2.58,0.32 -0.18,-0.5 -0.14,-1.27 -0.05,-1.77 0.09,-0.27 0.05,-0.64 0.09,-0.91 0.05,-0.18 0.19,-0.5 0.23,-0.77l0.64 -2.36c0.04,-0.27 0.18,-0.36 0.36,-0.59 0.68,-1.04 1.31,-2.04 1.9,-3.09 0.1,-0.18 0.19,-0.45 0.32,-0.68 0.59,-1.18 1.23,-3.04 1.55,-4.4 0.18,-0.72 0.45,-2.81 -0.19,-3.36 -0.59,-0.45 -2.04,-1.09 -3.08,-0.81 -0.82,0.22 -1.27,0.72 -1.59,1.4 -0.14,0.23 -0.14,0.37 -0.27,0.68l-1.18 3.86c-0.05,0.23 -0.14,0.5 -0.23,0.73l-0.63 2.36c-0.05,0.27 -0.1,0.59 -0.14,0.86 -0.05,0.18 -0.09,0.23 -0.14,0.41 -0.04,0.27 -0.04,0.13 -0.09,0.36l-0.36 1.63c-0.05,0.37 -0.14,0.5 -0.18,0.78l-0.64 3.31c-0.22,1.04 -0.04,0.63 -0.72,1.27 -0.41,0.36 -0.68,0.59 -1.05,0.91 -0.27,0.22 -0.86,0.77 -1.22,0.77 -0.23,-0.28 -0.18,-0.41 -0.23,-0.82 0,-0.91 0.18,-2.63 0.36,-3.49 0.09,-0.23 0.09,-0.5 0.19,-0.77 0.13,-0.5 0.18,-1.05 0.36,-1.59 0.36,-1.23 0.59,-2.68 1,-3.81 0.13,-0.28 0.13,-0.5 0.22,-0.78 0.09,-0.18 0.19,-0.45 0.28,-0.68 0.22,-0.5 0.31,-0.27 0.31,-0.72 -0.68,-0.32 -1.18,-0.59 -2.08,-0.64 -1.64,-0.13 -1.86,0.59 -2.18,0.64 -0.14,0.04 -0.5,-0.28 -0.95,-0.41 -0.32,-0.09 -0.82,-0.23 -1.14,-0.27 -0.36,-0.05 -0.95,-0.05 -1.36,0 -0.36,0 -0.73,0.13 -1.04,0.27 -0.55,0.13 -1.46,0.63 -1.86,0.91 -0.59,0.4 -1,0.81 -1.46,1.27 -0.4,0.41 -0.9,1 -1.27,1.54 -0.27,0.36 -0.59,0.86 -0.81,1.27 -0.05,0.18 -0.14,0.27 -0.23,0.41 -0.64,1.22 -0.77,1.81 -1.18,2.95 -0.73,1.9 -1.23,6.17 0.82,7.53 0.54,0.32 1.58,0.45 2.4,0.32 0.73,-0.09 1.36,-0.46 1.91,-0.86 0.27,-0.19 0.54,-0.41 0.77,-0.64 0.63,-0.54 1.36,-1.5 1.86,-2.22 0.23,-0.28 0.36,-0.55 0.54,-0.82 0.14,-0.18 0.41,-0.73 0.55,-0.77 0.13,0.14 0.04,0.59 0,0.86 -0.05,0.59 -0.05,2.18 0.09,2.68 0.27,0.86 0.91,1.68 2,1.77 1.72,0.09 2.76,-0.82 3.76,-1.86l0.64 -0.82c0.13,-0.18 0.09,-0.14 0.27,-0.18 0.09,0.23 0.04,0.68 0.09,1 0.36,1.77 2.09,1.99 3.54,1.63 1.41,-0.32 3.08,-1.59 3.95,-2.59 0.41,-0.49 1.54,-2.17 1.54,-2.85z"/>
  <path class="fil4" d="M48.92 50.05c0,-0.45 0.13,-0.91 0.27,-1.27 0.09,-0.41 0.18,-0.77 0.27,-1.13l0.54 -1.68c0.32,-1.41 0.82,-2.59 1.23,-3.86 0.18,-0.68 0.32,-0.82 0.68,-0.73 0.05,0.09 0.09,0.23 0.09,0.41 0,0.73 -0.04,1 -0.18,1.64 0,0.13 -0.05,0.18 -0.05,0.27 -0.04,0.13 -0.04,0.18 -0.09,0.32 -0.5,1.86 -1.45,3.99 -2.4,5.62 -0.27,0.41 -0.14,0.32 -0.36,0.41z"/>
  <g>
   <path class="fil5" d="M39.48 27.27c0.81,0 4.13,0 4.9,-0.09 0.27,0 0.45,-0.04 0.68,-0.14 0.23,-0.09 0.36,-0.18 0.63,-0.22 0.09,0.54 0.14,0.95 0.14,1.54l0.45 4.49c0.14,0.77 0.41,2 0.73,2.59 0.5,0.86 1.23,1.09 2.18,1.09 0.5,0 0.72,-0.05 1.18,-0.09 0.22,-0.05 0.22,-0.05 0.45,-0.14 0.18,-0.13 0.68,-0.09 1.32,-0.54 0.09,-0.09 0.27,-0.18 0.41,-0.23l0.27 -0.23c0.18,-0.18 -0.14,-0.22 -0.36,-0.77 -0.14,-0.27 -0.28,-0.5 -0.37,-0.72 -0.18,-0.55 -0.32,-1.05 -0.5,-1.64 -0.22,-0.91 -0.18,-1.13 -0.31,-1.81 -0.05,-0.23 -0.1,-0.18 -0.1,-0.41 -0.72,-5.79 -0.85,-11.83 -0.95,-17.65 0,-0.64 -0.04,-1.41 -0.09,-2.04l-0.27 -1.87c-0.23,-1.13 -1.04,-1.9 -2.27,-1.9 -1.04,0 -1.63,0.23 -2.36,0.59 -1.18,0.59 -1.13,0.63 -1.54,1.41 -1.66,3.48 -3.39,6.92 -5.08,10.39 -0.14,0.22 -0.14,0.31 -0.23,0.54l-2.54 4.81c-0.18,0.32 -0.32,0.68 -0.5,1l-1.59 2.77c-0.18,0.36 -0.41,0.63 -0.54,0.95 -0.5,0.91 -1.82,2.77 -2.41,3.54 -0.68,0.91 -1.27,1.54 -2.31,2.04 0,0.27 0.31,0.68 0.5,0.82 0.27,0.18 0.54,0.36 0.81,0.54 0.91,0.5 2.18,0.82 3.22,0.37 0.19,-0.09 0.32,-0.09 0.5,-0.23 0.59,-0.41 1.5,-1.5 1.86,-2.13l0.73 -1.23c0.27,-0.59 0.63,-1.18 0.91,-1.72l0.86 -1.82c0.32,-0.54 0.5,-1.45 0.86,-1.81l0.73 -0.05zm0.5 -3.86l-0.18 0.87c0.95,0 1.95,0 2.9,0 0.63,0 2.27,0.04 2.68,-0.09 0.13,-0.05 0.13,-0.1 0.13,-0.23 0.05,-0.05 0.05,-0.05 0.05,-0.05 0.04,-0.41 -0.05,-2.58 -0.09,-2.81 -0.09,-0.5 0,-1.04 -0.05,-1.54 -0.09,-1 0,-3.41 -0.18,-4.4 -0.05,-0.55 -0.09,-2.55 -0.14,-2.73 0,-0.13 0,-0.09 -0.04,-0.13l-0.27 0.04c-0.09,0.09 -0.05,0.09 -0.09,0.18 -0.07,0.17 -0.46,1.09 -0.46,1.18l-4.26 9.71zm37.39 -4.9c-2.71,0.68 -5.41,8.25 -5.18,11.57 0,0.69 -0.09,1.28 0.23,1.87 0,0 0.05,0.09 0.05,0.09 0.84,1.01 1.99,0.03 2.49,-0.68 1.53,-2.21 5.27,-7.95 5.63,-10.44 0.09,-0.41 -0.05,-0.64 -0.18,-0.95 -0.18,-0.41 -0.37,-0.69 -0.77,-0.96l-0.5 -0.31c-0.32,-0.14 -0.68,-0.23 -1.05,-0.23l-0.63 0c-0.07,0 0,0.04 -0.09,0.04zm12.2 0c0,2.47 -1.19,6.69 -1.72,9.35 -0.27,1.09 0.09,0.95 -1.27,2.36 -0.41,0.41 -0.77,0.82 -1.23,1.18 -1.72,1.5 -1.77,1.04 -1.68,-1.41 0,-1.88 0.94,-5.29 1.32,-7.21 0.09,-0.32 0.18,-0.64 0.27,-0.91 0.16,-0.51 1.82,-5.41 1.82,-5.44 -0.18,0 -0.5,-0.19 -0.68,-0.28 -0.23,-0.09 -0.46,-0.13 -0.68,-0.22 -0.87,-0.32 -2.23,-0.37 -3.04,0 -1,0.45 -0.68,0.86 -1.32,0.41 -0.09,-0.1 -0.23,-0.14 -0.36,-0.19 -1.05,-0.45 -1,-0.63 -2.54,-0.63 -2.11,0 -3.26,0.84 -4.95,1.95 -1.26,0.97 -2.76,2.88 -3.58,4.27 -0.14,0.27 -0.28,0.54 -0.46,0.81 -1.09,2.34 -1.35,3.38 -2,5.76 -0.31,1.09 0.05,1.55 -0.54,2.09 -0.95,0.91 -1.72,1.68 -2.99,2.18 -1.05,0.45 -3.36,0.95 -4.41,0.32 -0.54,-0.37 -0.81,-0.86 -1.04,-1.59 -0.93,-2.85 -0.15,-9.2 2.18,-11.84 0.63,-0.77 1.5,-1.32 2.68,-1.32 1.49,0 1.95,1.13 2.26,2.36 0.1,0.36 0.1,0.59 0.5,0.5 0.37,-0.09 1.14,-0.55 1.36,-0.73l0.69 -0.54c0.9,-0.68 1.27,-2.27 0.45,-3.18 -0.64,-0.59 -1.5,-0.81 -2.41,-0.91 -1.9,-0.27 -3.9,0.05 -5.58,0.82 -0.41,0.18 -0.9,0.32 -1.22,0.64l-1.73 1.31c-0.4,0.41 -0.86,0.82 -1.22,1.27 -0.09,0.09 -0.18,0.23 -0.27,0.37l-1.73 2.58c-0.18,0.37 -0.54,1.27 -0.72,1.73 -0.73,2.13 -1.09,4.04 -1.05,6.3 0.05,1.91 0.86,3.95 2.54,4.86 0.55,0.27 1.05,0.54 1.73,0.68l1.09 0.14c0.36,0.04 0.86,0 1.22,0 1.32,0 2.5,-0.32 3.63,-0.73 0.41,-0.14 0.73,-0.23 1.09,-0.41 0.18,-0.09 0.36,-0.13 0.5,-0.22 0.18,-0.14 0.18,-0.14 0.45,-0.28 0.78,-0.41 1.55,-0.95 2,-1.63 0.14,-0.18 0.18,-0.32 0.36,-0.36 0.32,0.81 0.09,1.04 0.73,2.08 0.73,1.27 2.22,1.77 3.77,1.55 0.81,-0.14 1.67,-0.64 2.31,-1.09 0.41,-0.27 0.77,-0.59 1.09,-0.91 1.18,-1.09 2.45,-2.9 3.27,-4.31 0,-0.05 0.04,-0.14 0.09,-0.18 0.18,-0.18 0.04,-0.05 0.22,-0.14 0,1.68 -0.27,3.09 0.23,4.63 0.18,0.54 0.64,1.18 1,1.45 0.59,0.37 1.04,0.5 1.95,0.5 1.32,-0.04 2.54,-1.09 3.27,-1.72 0.22,-0.18 0.36,-0.37 0.59,-0.59 0.45,-0.41 0.77,-0.91 1.09,-1.41 0.18,-0.27 0.31,-0.68 0.5,-0.68 0.22,0.36 -0.32,3.04 1.72,4.04 1.86,0.86 3.99,-0.46 5.31,-1.82 1.13,-1.22 1.31,-1.63 1.95,-3.08 0.23,-0.41 0.54,-1.5 0.32,-1.91 -0.32,-0.04 -0.46,0.05 -0.64,0.18 -0.68,0.55 -2.77,3.09 -3.31,3 -0.55,-0.09 -0.5,-2.27 -0.36,-2.86 0.68,-3.44 1.41,-6.76 2.13,-10.17 0.18,-0.86 0.59,-1.99 0,-2.76 -0.45,-0.68 -0.82,-0.87 -1.91,-0.87 -0.63,0 -1.31,0.1 -1.86,0.23 -0.27,0.09 -0.45,0.14 -0.81,0.23 -0.37,0.09 -0.46,0.18 -0.73,0.27 0,0.41 0.36,1.04 0.36,2.13zm-30.94 23.1c-0.68,0.18 -1,0.27 -1.82,0.32 -0.82,0 -0.72,0 -1.41,-0.14l-0.31 -0.04c-0.32,0.04 -0.41,0.86 -0.28,1.22 0.1,0.32 0.46,0.41 0.78,0.55 0.81,0.27 2.72,0.04 3.67,-0.14 0.46,-0.09 1.45,-0.5 1.86,-0.77 0.25,-0.18 0.44,-0.3 0.6,-0.47 0.64,-0.59 1.26,-2.03 0.49,-2.93 -0.82,-0.91 -2.31,-1.05 -2.63,-1.23 -0.05,-0.54 0.27,-0.41 0.23,-0.91 -1.32,-0.09 -2.32,0.91 -2.18,2.27 0.5,0.32 1.36,0.27 1.68,0.77 0.13,0.23 0.27,0.73 0.04,1 -0.21,0.3 -0.47,0.35 -0.72,0.5z"/>
  </g>
  <path class="fil5" d="M58.67 41.56c0,0 -0.04,0.05 -0.04,0.05l0.04 -0.05z"/>
  <path class="fil6" d="M30.72 90.71c0.05,0.04 0,-0.05 0.05,0.09 0,0.04 0,0.09 0,0.13 0,0.1 0,0.23 0,0.32 -0.05,0.18 -0.05,0.37 -0.05,0.59 -0.09,1.91 0.05,1.09 -1.54,1.23 0,0.31 0.04,0.68 -0.05,0.9 -0.32,0.19 -2.9,-0.13 -3.36,-0.18 -0.59,-0.09 -1.13,-0.09 -1.72,-0.13 -0.64,-0.09 -3.68,-0.37 -4.08,-0.5 -0.28,-0.05 -0.64,-0.05 -0.91,-0.05 -0.68,-0.09 -2.95,-0.22 -3.31,-0.41 -0.05,-0.81 0.13,-0.81 -0.87,-0.81 -0.5,0 -0.31,0 -0.63,-0.18 0,-0.28 0,-0.59 0,-0.87 -0.09,-1.31 -0.14,-0.81 1.81,-0.9 0.09,-1.09 0,-5.4 0,-6.86 -0.04,-1.08 -0.09,-2.22 -0.13,-3.31 0,-0.68 0.09,-4.63 -0.05,-5.03 -0.13,-0.46 -0.04,-1.14 -0.04,-1.68 0,-0.37 0,-0.46 0.27,-0.55l3.13 -1.18c0.09,-0.04 0.18,-0.09 0.32,-0.13l1.72 -0.37c0.27,0 0.59,0 0.86,0 1.09,-0.04 2.14,-0.04 3.18,0.27 0.23,0.05 0.5,0.1 0.73,0.14l1.31 0.41c0.23,0.09 0.37,0.14 0.59,0.23 0.23,0.09 0.41,0.13 0.64,0.22 0.45,0.18 0.27,0.23 0.54,0.32 0.59,0.23 0.59,-0.14 0.59,1.14 0,0.59 -0.04,1.08 -0.04,1.63l-0.09 4.72c0,0.32 -0.05,0 -0.05,0.32 -0.05,0.45 0,1.22 0,1.67 -0.05,2 -0.05,4.81 -0.14,6.77 -0.09,2.31 -0.27,1.95 0.91,1.95 0.32,0 0.32,0 0.41,0.09zm-15.02 -20.42c0,-1 -0.14,-1.36 0.36,-1.45 0.59,-0.09 0.18,-0.09 0.5,-0.19l1.73 -0.4c2.49,-0.41 3.63,-0.5 5.99,-0.37 0.99,0.05 0.63,0.05 1.36,0.18l1.31 0.19c0.09,0.04 0.05,0.04 0.14,0.04 0,0 0,0 0,0l0.27 0.05c0.41,0.04 2,0.41 2.45,0.59 0.14,0.04 0.23,0.04 0.27,0.22l0.05 0.14c0.05,0.32 0,1.36 -0.09,1.54 -0.45,0 -0.91,-0.31 -1.23,-0.36 -0.27,-0.05 -0.22,0 -0.45,-0.09 -0.27,-0.14 -0.5,-0.18 -0.82,-0.27l-0.9 -0.14c-0.32,-0.09 -0.5,-0.18 -0.87,-0.23 -0.36,0 -0.68,-0.04 -0.99,-0.09 -1.91,-0.22 -4.68,-0.18 -6.45,0.28 -0.18,0.04 -0.22,0.04 -0.41,0.04l-1.04 0.32c-0.18,0.04 -0.5,0.18 -0.64,0.23 -0.36,0.18 -0.54,0.36 -0.54,-0.23zm2.63 29.72c0.23,0.18 0.23,0.18 0.37,0.45 0.22,0.37 0.54,0.64 0.72,0.87 0.41,0.63 0.41,0.49 0.59,0.72 0.36,0.46 0.41,0.59 0.91,1.09l1.18 1.27c0.18,0.23 0.63,0.59 0.82,0.82 0.49,0.59 0.45,0.45 0.86,0.86 0.13,0.14 0.18,0.27 0.36,0.41l1.5 1.36c0.09,0.09 0.13,0.14 0.18,0.18l4.58 3.63c0.23,0.18 0.32,0.18 0.5,0.32l1.41 1.04c0.72,0.41 0.18,0.23 1.04,0.59l-0.09 -49.82c-0.95,-0.14 -23.59,-0.05 -26.05,-0.05 -1.27,0 -1.31,-0.13 -1.31,0.37 0,0.36 -0.05,1.31 0.04,1.63 0.05,0.27 0.05,0.41 0.05,0.77 0,0.23 0,0.55 0.05,0.77 0,0.32 0.09,0.32 0.09,0.68 0,0.28 0,0.59 0,0.82 0.09,0.86 0.18,2.68 0.36,3.4l0.13 1.09c0.05,0.18 0.14,0.41 0.14,0.64l0.23 1.45c0.04,0.18 0.09,0.14 0.13,0.27 0.05,0.09 0.05,0.23 0.09,0.32 0,0.23 0.05,0.5 0.1,0.73 0.04,0.09 0.09,0.22 0.09,0.31 0.13,0.37 0.13,0.64 0.22,1 0.18,0.59 0.28,1.32 0.5,1.95 0.37,0.91 0.5,1.73 0.77,2.5 0.05,0.18 0.05,0.09 0.14,0.27 0.09,0.18 0.45,1.45 0.73,2.09l0.36 0.95c0.27,0.82 0.36,0.77 0.59,1.41 0.09,0.18 0.18,0.41 0.27,0.59l0.64 1.4c0.04,0.1 0.04,0.19 0.09,0.23l0.54 1.14c0.09,0.18 0.23,0.36 0.32,0.54 0.14,0.18 0.14,0.32 0.27,0.55 0.41,0.63 0.46,0.95 0.91,1.49l2.86 4.54c0.13,0.32 1.45,2.13 1.72,2.36z"/>
  <path class="fil7" d="M38.57 115.76c0.18,0.31 5.72,2.81 6.4,2.81 0.09,0.04 0.13,0.09 0.22,0.04 0.05,-0.27 0.1,-0.31 0.1,-0.68l0 -10.93c0.18,-1 0.09,-3.31 0.09,-4.54 0,-0.5 0.04,-0.95 0.04,-1.36 0,-2 0,-3.95 0,-5.95 0,-0.59 -0.04,-9.39 0.09,-9.66 0,0 0,-0.05 0,-0.05l0.09 -0.18c0,-0.04 0,-0.27 0,-0.36 0,-0.45 0,-0.95 0,-1.41 0,-2.08 -0.04,-4.67 0,-6.71 0,-0.5 0.23,-1.55 -0.13,-1.91 -0.09,-0.09 -1.09,-0.27 -1.68,-0.54 -0.82,-0.37 -2.41,-0.37 -3.36,-0.23 -0.14,0 -0.5,0.05 -0.63,0.09 -0.37,0.09 -0.82,0.27 -1.18,0.32 -0.23,0.04 -0.37,0.09 -0.37,0.27 -0.13,0.54 0.05,1.77 0.05,2.18 0,0.27 0,0.5 0,0.77 0,2.22 -0.09,5.22 0,7.4 0,0.31 0.09,0.27 0.09,0.63l0 6.63c0,0.22 0.23,23.09 0.18,23.37z"/>
  <path class="fil7" d="M52 92.02c0.68,0 1.41,0.05 2.09,0.09l5.08 0.28c0.32,0 0.68,0.09 0.91,0.09 0.18,-0.41 0.09,-4.45 0.09,-5.49l0 -1.41c0,-0.45 0,-0.27 -0.09,-0.36 -0.09,-0.09 0.13,-0.09 -0.41,-0.09 -0.18,0 -0.36,0 -0.54,0 -1.77,0 -6.27,-0.19 -7.36,-0.09 -0.09,1.18 0.05,2.4 0.05,3.53l0 2.73c0,0.32 -0.05,0.63 0.18,0.72z"/>
  <path class="fil8" d="M87.21 108.81c0.09,-0.22 0.19,-4.76 0.19,-5.76 0,-0.05 0,-0.18 0,-0.23 -0.1,-0.45 -0.69,-0.13 -1.68,-0.27 -0.64,-0.04 -4.81,-0.04 -5.31,-0.04l0 5.71c0,0.41 0.13,0.32 0.54,0.32 1.09,0 5.67,0.36 6.26,0.27z"/>
  <path class="fil8" d="M68.29 108.27c0.64,0.09 6.67,0.41 6.81,0.32 0.13,-0.28 0.09,-2.59 0.09,-3.14l0.09 -2.67c0.04,-0.59 -0.32,-0.41 -1.77,-0.41 -0.59,0 -1.13,0 -1.68,-0.05 -1.09,-0.04 -2.49,-0.04 -3.54,0l0 5.95z"/>
  <path class="fil8" d="M24.78 85.35c-0.37,-0.09 -3.27,-0.13 -3.73,-0.09 -0.09,0.37 -0.18,3.41 -0.13,3.9l1.9 0.14c0.37,0.05 0.73,0 1.05,0.05 0.41,0.04 0.5,0.09 0.86,-0.09l0.05 -3.91z"/>
  <path class="fil8" d="M21.1 77.64c0,0.41 -0.18,2.68 0,2.86 0.14,0.13 1.86,0.04 2.18,0.04 1.86,0.05 1.63,0.18 1.63,-0.54l0.05 -2.86c-0.28,-0.18 -0.23,-0.14 -0.68,-0.14l-3.04 -0.04c-0.14,0.18 -0.14,0 -0.14,0.27 0,0.14 0,0.27 0,0.41z"/>
  <path class="fil8" d="M21.01 84.22c0,0.32 -0.05,0.5 0.27,0.5l3.45 0c0.14,-0.27 0.09,-0.73 0.09,-1.14l0.05 -2.36c-0.28,-0.13 -2.91,-0.18 -3.41,-0.18 -0.54,0 -0.41,0.05 -0.41,1.36 0,0.59 -0.04,1.23 -0.04,1.82z"/>
  <path class="fil8" d="M21.28 76.32c0.27,0.14 2.09,0.09 2.72,0.09 0.28,0 0.73,0.05 0.91,-0.09 0.09,-0.22 0.09,-2.63 0.05,-3.04l-1.27 -0.31c-0.5,-0.1 -1.14,-0.1 -1.64,-0.1 -1.09,0 -0.81,-0.22 -0.86,2.45l0.05 0.91c0,0.14 0,0.05 0.04,0.09z"/>
  <path class="fil7" d="M54.18 84.35c0.36,0.23 1,0.14 1.63,0.14l1.73 0c0.04,-0.95 0.13,-1.95 0.09,-2.95 -0.27,-0.27 -0.55,-0.13 -1.23,-0.18l-2.04 -0.05c-0.14,0.28 -0.09,-0.04 -0.09,0.69 0,0.22 0,0.54 -0.05,0.77 0,0.5 -0.04,0.99 -0.04,1.58z"/>
  <path class="fil8" d="M18.24 85.22c-0.09,0.45 -0.09,3.54 0.05,3.81 0.36,0.04 0.72,0.04 1.13,0.04 0.91,0.09 1.04,0.23 1.04,-0.4 0,-0.19 0,-0.32 0,-0.5 0,-0.32 0.1,-2.68 -0.04,-2.86 -0.14,-0.18 -1.91,-0.14 -2.18,-0.09z"/>
  <path class="fil7" d="M54.36 80.77c0.45,0.14 1,0.09 1.59,0.09 0.27,0 1.54,0.09 1.68,-0.04 0.13,-0.1 0.13,-2.14 0.13,-2.14 -0.18,-0.45 -2.72,-0.41 -3.22,-0.41 -0.22,0.32 -0.13,0.64 -0.13,1.18 0,0.46 -0.09,0.96 -0.05,1.32z"/>
  <path class="fil8" d="M70.74 82.72c-0.04,0.36 -0.18,2.68 0,2.86 0.09,0.05 1.73,0.14 2.04,0.14l0.5 0c0.18,-0.05 0.09,0 0.14,-0.05 0.09,-0.09 0.09,-2.31 0.09,-2.59 0,-0.09 0,-0.09 0,-0.18 -0.05,-0.13 -0.05,-0.09 -0.09,-0.13 -0.23,-0.09 -2.27,-0.09 -2.68,-0.05z"/>
  <path class="fil8" d="M27.32 89.44c0.09,-0.28 0.09,-2.59 0.09,-3.04 0.04,-1.09 0.13,-1 -0.59,-1 -0.41,0 -1.09,-0.05 -1.45,0.04l-0.1 3.91c0.37,0.04 1.91,0.13 2.05,0.09z"/>
  <path class="fil8" d="M18.2 80.41c0.09,0.04 2.17,0.13 2.31,-0.05 0.09,-0.27 0.09,-3.13 0,-3.36 -0.27,-0.09 -1.91,-0.09 -2.31,-0.04l0 3.45z"/>
  <path class="fil8" d="M18.24 84.54c0.14,0.09 2.04,0.18 2.18,0 0.18,-0.28 0.09,-1.32 0.09,-1.73l0 -1.5c-0.05,-0.4 -0.36,-0.22 -1.13,-0.27 -0.37,0 -0.87,0 -1.18,0.05 -0.05,0.45 -0.05,3.17 0.04,3.45z"/>
  <path class="fil8" d="M85.53 82.99c-0.04,-0.04 0,-0.04 -0.13,-0.04 -0.05,-0.05 -0.05,-0.05 -0.14,-0.05 -0.09,0 -0.18,0 -0.27,0l-1.54 -0.04c-0.55,0 -0.64,-0.14 -0.64,0.45 0.05,2.68 -0.32,2.5 0.68,2.5 0.46,0.04 1.82,0.13 2.04,0.04 0.05,-0.13 0.19,-2.63 0,-2.86z"/>
  <path class="fil8" d="M70.47 99.28l-0.05 2.54c0.28,0.23 1.59,0.14 1.91,0.14l1 0c0.09,-0.86 0.04,-1.77 0.04,-2.63 -0.18,-0.14 -0.4,-0.14 -0.77,-0.14 -0.45,0 -1.86,-0.13 -2.13,0.09z"/>
  <path class="fil8" d="M82.59 98.97c0.31,0.18 2.26,0.09 2.81,0.09 0.13,-0.23 0.09,-0.64 0.09,-1.09l0 -1.32c-0.32,-0.22 -2.13,-0.41 -2.63,-0.36 -0.37,0.04 -0.23,0.41 -0.27,1.22 0,0.46 -0.1,1 0,1.46z"/>
  <path class="fil8" d="M82.95 76.14c0.27,0.18 1.31,0.09 1.72,0.09 1.05,0 1.18,0.18 1.14,-0.5 0,-0.54 0.04,-1.45 0,-1.9 -0.46,-0.27 -2,-0.41 -2.77,-0.32 -0.18,0.32 -0.14,2.09 -0.09,2.63z"/>
  <path class="fil8" d="M20.51 76.46c0.23,-0.5 0.14,-1.77 0.14,-2.36l0 -1.09c-0.37,-0.04 -0.68,0.14 -1.05,0.27l-0.54 0.23c-1.18,0.68 -0.95,-0.09 -0.95,2.22 0,0.5 -0.14,0.68 0.36,0.68 0.63,0 1.45,0.05 2.04,0.05z"/>
  <path class="fil8" d="M70.79 78.09l-0.05 0.73c0.05,0.32 0.09,0.27 0.64,0.27l1.99 0c0.5,-0.04 0.28,-0.41 0.28,-1.45l0.04 -1.09c-0.32,-0.18 -0.95,-0.09 -1.41,-0.09 -0.4,0 -1.04,-0.09 -1.4,-0.05 -0.23,0.32 -0.09,1.18 -0.09,1.68z"/>
  <path class="fil8" d="M85.63 79.77c-0.28,-0.09 -1.59,-0.04 -2,-0.04 -0.95,0 -0.77,-0.19 -0.77,1.36 0,0.32 -0.05,0.77 0,1.04 0,0.41 0.13,0.27 0.77,0.27 0.18,0 1.86,0.09 2,-0.04 0.13,-0.18 0.13,-2.36 0,-2.59z"/>
  <path class="fil8" d="M82.59 102.05c0.18,0.09 2.45,0.14 2.72,0 0.13,-0.77 0.04,-1.72 0.09,-2.49 -0.36,-0.19 -1.86,-0.14 -2.27,-0.14 -0.54,0 -0.59,-0.05 -0.59,0.5 0,0.23 -0.09,1.95 0.05,2.13z"/>
  <path class="fil8" d="M82.9 78.37c0,0.9 -0.13,0.9 0.46,0.9 0.18,0 2.22,0.09 2.31,-0.09 0.14,-0.22 0.09,-1.31 0.09,-1.68 0,-1 0.64,-0.86 -2.49,-0.86 -0.5,0 -0.37,0.27 -0.37,1.73z"/>
  <path class="fil8" d="M73.6 75.96c0.09,-0.09 0.05,0 0.09,-0.23l0 -1.72c0,-0.23 0,-0.36 -0.23,-0.45 -0.49,-0.23 -1.81,-0.28 -2.49,-0.23 -0.18,0.41 -0.09,0.72 -0.09,1.27 -0.05,1.72 -0.32,1.45 1.36,1.45 0.36,0 1.13,0.09 1.36,-0.09z"/>
  <path class="fil8" d="M70.52 96.92l0 1.82c0.27,0.09 2.63,0.18 2.76,0.04 0.14,-0.13 0.09,-0.45 0.09,-0.72 0,-1.82 0.19,-1.59 -0.68,-1.77 -0.45,-0.09 -0.9,-0.18 -1.4,-0.18 -0.87,0 -0.77,-0.05 -0.77,0.81z"/>
  <path class="fil8" d="M25.46 84.67c0.13,0.09 1.86,0.09 1.95,0 0.13,-0.13 0.13,-3.26 0.09,-3.45 -3,-0.18 -1.77,-0.27 -2.09,2.32l-0.04 0.86c0,0.05 0,0.05 0.04,0.14 0,0.13 0,0.04 0.05,0.13z"/>
  <path class="fil8" d="M73.51 79.59c-0.27,-0.05 -2.54,-0.09 -2.63,0 -0.14,0.09 -0.09,0.09 -0.09,0.32 0,0.5 -0.05,1.95 0,2.27l2.77 0.04 -0.05 -2.63z"/>
  <path class="fil8" d="M27.54 80.5c0.09,-0.18 0.05,-0.59 0.05,-0.82 0,-0.32 0.04,-0.5 0.04,-0.82 0,-0.4 0.1,-1.4 -0.04,-1.67 -0.23,-0.1 -1.63,-0.1 -1.95,-0.05 -0.09,0.82 -0.09,1.77 -0.09,2.63 0,0.82 -0.37,0.82 1.68,0.77l0.31 -0.04z"/>
  <path class="fil7" d="M57.95 84.45c0.36,0.18 0.4,0.09 0.99,0.09 0.41,0 0.87,0.04 1.27,0 0.14,-0.41 0.05,-2.5 0.05,-3.09 -0.23,-0.09 -0.54,-0.04 -0.91,-0.04 -0.41,-0.05 -0.81,-0.05 -1.18,0l-0.22 3.04z"/>
  <path class="fil7" d="M53.73 84.35c0.09,-0.09 0.04,-0.09 0.04,-0.27l0 -2.04c0.05,-0.36 0.05,-0.04 0.09,-0.32 0.09,-0.54 -0.41,-0.36 -1,-0.36 -0.31,0 -0.68,0 -1.04,0 -0.18,0.5 -0.09,0.54 -0.09,1.23 0,2.35 -0.36,1.86 1.41,1.86 0.27,0 0.45,0.09 0.59,-0.1z"/>
  <path class="fil8" d="M75.55 85.76c0.05,-0.45 0.05,-1.09 0.05,-1.59 0,-0.45 0.13,-1.13 -0.09,-1.45l-1.5 0c-0.14,0.27 -0.18,2.63 -0.18,3.09 0.5,0.09 1.09,0.13 1.63,0.09l0.09 -0.14z"/>
  <path class="fil8" d="M27.68 76.41c0.09,-0.22 0.09,-1.9 0,-2.08 -0.09,-0.14 -1.72,-0.77 -1.91,-0.77 -0.18,0.31 -0.09,1.95 -0.13,2.45 0,0.63 0.18,0.45 0.81,0.45 0.37,0 0.96,0.09 1.23,-0.05z"/>
  <path class="fil8" d="M68.25 101.82c0.22,0.1 1.58,0.1 1.81,0 0.09,-0.27 0.05,-0.9 0.05,-1.27 0,-0.18 0.04,-1.13 -0.05,-1.27 -0.13,-0.09 0.05,-0.04 -0.18,-0.04l-0.73 -0.05c-0.31,0 -0.63,0 -0.95,0.05 -0.04,0.41 -0.04,2.31 0.05,2.58z"/>
  <path class="fil8" d="M70.29 79l0.04 -0.27c0.05,-0.41 0.09,-2.18 -0.04,-2.32 -0.27,-0.09 -1.36,-0.04 -1.73,0 -0.09,0.5 0,1.59 0,2.14 0,0.59 0.09,0.5 0.64,0.5 0.27,0 0.91,0.04 1.09,-0.05z"/>
  <path class="fil8" d="M82.4 83.67c0,-0.72 0.28,-0.86 -0.54,-0.86 -0.23,0 -0.82,0 -1,0.05 0,0 -0.04,0 -0.04,0 -0.14,-0.27 -0.1,2.22 -0.05,2.81 0.18,0.09 0.54,0.05 0.82,0.05 1.04,0.04 0.77,0.22 0.81,-2.05z"/>
  <path class="fil8" d="M82.45 81.77c-0.05,-2.36 0.36,-2.09 -0.82,-2.09 -0.27,0 -0.63,-0.04 -0.95,0 0,0.64 -0.05,2.27 0.09,2.72l1.41 0c0.27,-0.04 0.27,-0.09 0.27,-0.63z"/>
  <path class="fil8" d="M82.09 101.96c0.09,-0.23 0.04,-1.41 0.04,-1.9l0 -0.46c-0.09,-0.27 -0.45,-0.18 -0.91,-0.18 -0.31,0 -0.63,-0.05 -0.9,0 -0.09,0.64 0,1.54 0,2.18 0,0.59 0.22,0.41 1.22,0.41 0.05,0 0.18,0 0.27,0 0.09,0 0.05,0 0.14,0 0.09,-0.05 0.05,0 0.14,-0.05z"/>
  <path class="fil8" d="M87.58 85.99c0.04,-0.73 0.13,-2.27 0.04,-3l-1.54 0 -0.05 2.95 1.55 0.05z"/>
  <path class="fil8" d="M70.33 79.54c-0.18,-0.04 -1.45,-0.04 -1.54,-0.04 -0.32,0.04 -0.18,0.27 -0.18,0.59 0,0.27 0,0.5 0,0.77 0,0.73 -0.14,1.27 0.23,1.32 0.18,0.04 1.27,0.04 1.49,0l0 -2.64z"/>
  <path class="fil8" d="M80.72 79.14c0,0 0.05,0 0.05,0.04l1.68 0.05 0 -2.27c0,-0.36 0,-0.36 -0.32,-0.36 -0.13,0 -1.31,0 -1.36,0 -0.18,0.04 -0.09,0.27 -0.09,0.54 0,0.5 -0.09,1.77 0.04,2z"/>
  <path class="fil8" d="M70.24 82.68c-1.59,-0.09 -1.59,-0.09 -1.59,0.31l0 1.14c0,0.45 -0.09,1.27 0.14,1.36l1.09 0.04c0.27,0 0.32,-0.04 0.32,-0.13l0.04 -0.64c0,-0.5 0.05,-1.72 0,-2.08z"/>
  <path class="fil8" d="M87.76 81.86c0,-0.36 0,-0.77 0,-1.18 0,-0.41 0.09,-0.64 -0.09,-0.91l-1.41 0c-0.18,0.23 -0.14,0.82 -0.14,1.23 0,0.41 -0.04,1.04 0,1.45 0.28,0.04 0.46,0.04 0.82,0.04 0.86,0 0.82,0.05 0.82,-0.63z"/>
  <path class="fil8" d="M80.63 74.92l0 1.18c0.32,0.18 1.77,0.13 1.86,0.04 0.1,-0.09 0.05,-2.22 0.05,-2.45 -0.27,-0.04 -0.5,-0.04 -0.68,0.05l-0.55 0.27c0,0 0,0 0,0 -0.59,0.32 -0.68,0.09 -0.68,0.91z"/>
  <path class="fil8" d="M68.52 74.19c-0.05,0.36 0,0.77 0,1.13 0,0.59 -0.14,0.64 0.45,0.64 1.77,0.05 1.45,0.45 1.45,-1.86l0 -0.68c-0.4,-0.05 -1.49,0.45 -1.9,0.77z"/>
  <path class="fil8" d="M68.2 97.01c-0.04,0.28 0,0.59 0,0.87l0 0.63c0.05,0.37 0.18,0.27 0.95,0.27 0.28,0 0.64,0 0.96,0 0,-0.36 0,-0.9 0,-1.27 0,-1.54 0.09,-1.31 -0.55,-1.13 -0.5,0.14 -0.95,0.27 -1.36,0.63z"/>
  <path class="fil8" d="M73.78 101.87c0.14,0.14 0.37,0.05 0.73,0.05 0.23,0 0.5,0.04 0.77,0 0.18,-0.37 0.09,-1.14 0.09,-1.64 0,-1.04 0.23,-1 -0.77,-1 -1.09,0 -0.73,-0.09 -0.82,0.91 -0.04,0.23 -0.13,1.54 0,1.68z"/>
  <path class="fil7" d="M51.68 79.41l0 1.31c0.32,0.14 1.23,0.1 1.64,0.1 0.81,0 0.45,0.13 0.59,-2.09 0.04,-0.55 -0.77,0 -1.09,0.13 -0.5,0.23 -0.68,0.23 -1.14,0.55z"/>
  <path class="fil8" d="M80.27 97.2l0 1.27c0,0.59 0,0.54 0.64,0.5 0.9,0 1.18,0.22 1.22,-0.28l0 -2.22c-0.72,0 -1.41,0.45 -1.86,0.73z"/>
  <path class="fil8" d="M87.3 102.01c0.14,-0.09 0.1,-0.14 0.1,-0.55l0.04 -1.72c0,0 0,0 0,-0.05 0,0 0,0 0,-0.04 -0.04,-0.09 -0.09,-0.09 -0.14,-0.09l-1.4 0c-0.09,0.59 -0.09,1.4 -0.14,1.99 0,0.73 -0.09,0.55 1.09,0.55 0.5,0.04 0.41,0 0.45,-0.09z"/>
  <path class="fil8" d="M75.6 82.22c0.04,-0.68 -0.05,-1.4 0.04,-2.09 0.05,-0.54 0,-0.54 -0.5,-0.49 -0.36,0 -0.72,-0.05 -1.04,0 -0.05,0.4 0,0.86 -0.05,1.31l0 1.14c0,0.09 0,0.04 0.05,0.13 0.23,0.09 1.18,0.05 1.5,0z"/>
  <path class="fil8" d="M74.15 79.09c0.27,0 0.49,0 0.77,0 0.27,0 0.45,0.05 0.68,-0.04 0.18,-0.05 0.09,-1.32 0.09,-1.59 0,-1.05 0.18,-0.91 -0.77,-0.96 -0.96,0 -0.73,-0.04 -0.77,0.96 0,0.45 -0.05,1.18 0,1.63z"/>
  <path class="fil8" d="M87.76 79.18c0.09,-0.18 0.09,-2.18 0.04,-2.45l-1.45 -0.04c-0.13,0.59 0,1.45 -0.04,2.08 -0.09,0.5 -0.19,0.5 0.45,0.5 0.45,0 0.77,0.09 1,-0.09z"/>
  <path class="fil7" d="M58.31 80.82c0.09,0.13 0.5,0.04 0.77,0.04 1.32,0.05 1.09,0.18 1.13,-0.68 0,-0.32 0.1,-0.36 0.05,-0.73l-0.59 -0.27c-0.36,-0.27 0,-0.04 -0.64,-0.22 -0.72,-0.23 -0.63,-0.41 -0.68,0.81 -0.04,0.18 0,0.46 -0.04,0.59 -0.05,0.32 -0.18,0.32 0,0.46z"/>
  <path class="fil8" d="M86.26 76.19c0.32,0.18 1.09,0.13 1.54,0.09 0.18,-0.27 0.14,-1.32 0.09,-1.77 -0.45,-0.09 -1.36,-0.73 -1.54,-0.46 0,0 -0.09,2 -0.09,2.14z"/>
  <path class="fil8" d="M87.44 99.01c0.14,-0.27 0.09,-1.18 0.05,-1.54 -0.09,-0.09 -1.14,-0.64 -1.46,-0.59 -0.13,0.41 -0.13,1.27 -0.13,1.81 0,0.46 0.13,0.37 0.59,0.37 0.32,0 0.72,0.04 0.95,-0.05z"/>
  <path class="fil8" d="M74.24 76.05l1.49 0 0.05 -1.59c-0.46,-0.31 -0.82,-0.31 -1.14,-0.5 -0.13,-0.04 -0.22,-0.18 -0.36,-0.04 -0.09,0.09 -0.09,1.86 -0.04,2.13z"/>
  <path class="fil8" d="M75.37 98.78l0.05 -1.54c-0.28,-0.18 -1.09,-0.54 -1.5,-0.5 -0.05,2.36 -0.27,2.09 0.5,2.09 0.32,-0.05 0.63,0 0.95,-0.05z"/>
  <path class="fil9" d="M78.73 109.67c-0.05,-1.08 -0.05,-2.17 -0.05,-3.31 0,-1.13 -0.04,-2.18 -0.04,-3.36 -0.05,-1.08 0.04,-2.31 -0.09,-3.35l0 -3.5 1.99 -0.86c0.23,-0.04 0.18,-0.09 0.32,-0.14 0.23,-0.09 0.45,-0.04 0.68,-0.09l0.32 -0.13c1.09,-0.18 2.36,-0.18 3.45,-0.05 0.18,0.05 0.54,0.05 0.68,0.14 0.68,0.27 1.36,0.36 1.9,0.63 0.23,0.09 0.32,0.09 0.59,0.23 0.19,0.14 0.37,0.23 0.55,0.32 0.13,2.04 -0.09,4.17 -0.09,6.17 0,2.04 -0.14,4.13 -0.14,6.17 -0.04,0.5 0,1.13 -0.04,1.54 -0.05,0.59 -0.78,0.23 -1.14,0.23 -1,0 -1.99,-0.18 -2.95,-0.23 -0.5,0 -0.95,-0.04 -1.49,-0.04l-3.73 -0.32c-0.22,-0.05 -0.45,0 -0.72,-0.05zm-12.12 -13.7c0.32,0 0.96,-0.45 1.14,-0.54 0.18,-0.14 0.27,-0.05 0.5,-0.18l1.9 -0.55 1.54 -0.09c0.64,0 0.96,0.05 1.5,0.14 0.64,0.09 0.91,0.09 1.41,0.4 0.32,0.23 0.14,-0.09 1.18,0.32 0.18,0.05 0.36,0.14 0.59,0.23 0.18,0.09 0.36,0.18 0.54,0.32 0.05,2.95 -0.13,6.26 -0.18,9.3 0,0.41 0.05,1.04 0,1.41 -0.04,0.22 -0.09,0.27 -0.09,0.59l-0.04 1.81c0,0.27 0.22,0.91 -0.14,1 -0.09,0 -0.05,0 -0.14,0 -0.31,-0.09 0.09,-0.14 -0.5,-0.05l-7.26 -0.45c-0.31,0 -0.27,-0.05 -0.59,-0.14 -0.27,-0.04 -0.95,0.09 -1.22,-0.09 -0.14,-0.13 -0.09,-5.49 -0.14,-5.85 -0.09,-2.36 -0.04,-4.45 -0.13,-6.72 -0.05,-0.95 0,-0.95 0.45,-1.04 0,0 -0.05,0 -0.05,0.05l-0.27 0.13zm12.35 -19.74c0,-0.68 -0.05,-1.36 -0.05,-2.04 0.05,-1.32 0,-0.68 0.5,-1.04 0.54,-0.41 0.32,-0.14 1,-0.5l0.77 -0.27c0.72,-0.28 0.41,-0.1 0.82,-0.19 0.72,-0.22 1.99,-0.31 2.76,-0.22 0.46,0.04 1.18,0 1.41,0.13l1.13 0.37c0.46,0.13 0.41,0 0.64,0.18 0.27,0.18 0.45,0.22 0.86,0.36l0.5 0.23c0,0.04 0,0.04 0.05,0.04 0.04,0.05 0.04,0.05 0.09,0.09 0,3.18 -0.14,6.27 -0.14,9.44 0,1.09 -0.04,0.59 -0.09,1 -0.09,0.36 0.05,2 0,2.41 0,0.22 -0.05,0.31 -0.05,0.63 0,0.18 0.1,0.5 0.05,0.64 0,0.09 -0.14,0.13 -0.23,0.22 -0.04,0 -0.13,0.09 -0.41,0 -0.77,0 -9.12,-0.77 -9.34,-0.81 -0.23,-0.82 -0.18,-2.55 -0.18,-3.54l-0.09 -7.13zm-11.94 6.13c0,-0.46 -0.04,-0.91 -0.04,-1.41 0,-0.5 -0.1,-0.86 -0.05,-1.31 0,-0.78 -0.09,-5.99 0,-6.27 0.05,-0.36 0.32,-0.4 0.59,-0.5 0.18,-0.04 0.09,0 0.23,-0.09l0.22 -0.13c0.05,-0.05 0.14,-0.09 0.23,-0.14l1.09 -0.36c0.91,-0.36 2.81,-0.41 3.81,-0.32 0.73,0.09 2.36,0.5 3,0.82 0.59,0.32 0.5,0.18 0.72,0.32l0.46 0.13 -0.09 6.35c-0.05,1.41 -0.23,5 -0.14,6.08 0.04,0.64 -0.05,0.82 0,1.41 0,0.09 0,0.18 0,0.27 -0.05,0.14 0,0.09 -0.09,0.14 -0.14,0.14 -9.39,-0.32 -9.89,-0.68 -0.09,-0.09 -0.05,-3.86 -0.05,-4.31zm11.25 38.7c0.5,-0.09 0.64,-0.13 1.09,-0.22 0.28,-0.05 0.23,-0.09 0.5,-0.14 0.14,-0.09 0.27,-0.09 0.46,-0.13 0.63,-0.19 1.22,-0.37 1.9,-0.55 0.14,-0.04 0.27,-0.14 0.46,-0.23 0.5,-0.13 1.27,-0.36 1.77,-0.63 0.13,-0.05 0.36,-0.09 0.49,-0.14l3.95 -1.63c0.27,-0.18 1.5,-0.68 2.04,-1 0.41,-0.23 1.18,-0.59 1.5,-0.82l0.09 -0.04 -0.22 -0.05c0.09,0.14 0.04,-0.18 0.04,-0.18 0,-0.23 0,-0.13 0.05,-0.36l0 -38.21c0,-1.41 0.04,-12.52 -0.09,-12.93l-27.68 0 0 58.85c0.13,0 0.22,0 0.36,0 0.18,0 0.32,0 0.5,0 1,0 1.68,0 2.72,-0.13 1.09,-0.14 2.09,-0.05 3.49,-0.32 0.59,-0.14 1.14,-0.14 1.73,-0.23 0.95,-0.18 2.36,-0.41 3.27,-0.59 0.5,-0.13 0.99,-0.27 1.58,-0.32z"/>
  <path class="fil9" d="M51.18 81.13c0,-0.68 0,-1.36 -0.04,-2.04 0,-0.63 0.5,-0.54 1.04,-0.95l0.68 -0.32c1.32,-0.63 4.22,-0.41 5.49,0 0.46,0.14 0.82,0.27 1.23,0.36l1.13 0.5 -0.04 14.52c-0.46,0.05 -5.81,-0.22 -6.58,-0.27 -2.41,-0.18 -2.77,0.32 -2.77,-0.82l-0.14 -10.98zm-0.81 -3.63c-0.27,0.18 -0.41,0.14 -0.64,0.37 -0.09,1.22 0.05,2.49 0.05,3.72 0,0.86 -0.05,2.99 0.09,3.72l0.09 8.26c-0.14,0.09 -0.32,0.13 -0.55,0.13 -0.04,0.46 -0.22,1.82 -0.04,2.18 0.18,0.14 3.04,0 3.22,0l3.77 0c0.45,0 1.04,-0.04 1.59,-0.04l3.81 -0.14c0.18,0.04 0.27,0.09 0.5,0.09 0.09,0 0.45,0 0.5,-0.09 0,0 0.04,-0.05 0.04,-0.05 0,0 0,0 0,-0.04 0,-0.05 0,-0.05 0.05,-0.14 0,-0.04 -0.05,-0.22 -0.05,-0.27 -0.04,-0.23 -0.09,-0.14 -0.14,-0.36 0,-0.14 0,-0.23 0,-0.41 -0.04,-0.27 -0.04,-0.41 -0.22,-0.5 0,0 0,0 0,0l-0.46 -0.05c-0.4,-0.09 -0.13,-0.81 -0.13,-1.72 0,-1.68 0.13,-3.9 0.13,-5.58 0,-2.13 0.1,-4.13 0.14,-6.22l0.05 -2.58c-1,-0.55 -2.14,-0.64 -2.95,-1.05l-1.55 -0.36c-2.08,-0.41 -5.49,0.13 -7.3,1.13z"/>
  <path class="fil9" d="M37.3 94.34l0 3.31c0.04,0.27 0.09,0.14 0.09,0.54l0.14 12.17c0.13,1.08 -0.09,4.08 0.27,4.71l0.77 0.69c0.05,-0.28 -0.18,-23.15 -0.18,-23.37l0 -6.63c0,-0.36 -0.09,-0.32 -0.09,-0.63 -0.09,-2.18 0,-5.18 0,-7.4 0,-0.27 0,-0.5 0,-0.77 0,-0.41 -0.18,-1.64 -0.05,-2.18 0,-0.18 0.14,-0.23 0.37,-0.27 0.36,-0.05 0.81,-0.23 1.18,-0.32 0.13,-0.04 0.49,-0.09 0.63,-0.09 0.95,-0.14 2.54,-0.14 3.36,0.23 0.59,0.27 1.59,0.45 1.68,0.54 0.36,0.36 0.13,1.41 0.13,1.91 -0.04,2.04 0,4.63 0,6.71 0,0.46 0,0.96 0,1.41 0,0.09 0,0.32 0,0.36l0.5 0.05c0,0 -0.59,0.18 -0.59,0.18 -0.13,0.27 -0.09,9.07 -0.09,9.66 0,2 0,3.95 0,5.95 0,0.41 -0.04,0.86 -0.04,1.36 0,1.23 0.09,3.54 -0.09,4.54l0 10.93c0,0.37 -0.05,0.41 -0.1,0.68 0.28,0.05 0.5,0.05 0.82,0.09 0.05,-1.72 0.27,-3.76 0.32,-5.49l0.23 -16.92c0,-0.95 0.04,-1.86 0.04,-2.77 0,-0.82 -0.04,-2 0.05,-2.77 0.13,-1.27 -0.05,-3.99 0.04,-5.58 0.09,-0.91 0,-4.45 0,-5.58 0,-0.95 0,-1.91 0,-2.81 0,-0.96 0.09,-2.5 0.05,-3.45 -0.46,-0.23 -1,-0.23 -1.23,-0.46 -0.36,-0.36 -1.59,-0.72 -2.18,-0.81 -0.86,-0.09 -1.86,-0.18 -2.76,0 -0.28,0.04 -0.59,0.04 -0.87,0.09l-1.13 0.32c-0.18,0.09 -0.14,0.09 -0.36,0.18 -0.77,0.22 -1.18,0.81 -1.18,2.04l0.18 15.75c0,0.45 0,3.67 0.09,3.9z"/>
  <path class="fil9" d="M43.43 67.02c0,-0.27 0,-0.5 -0.14,-0.68 -0.27,-0.59 -0.68,-0.91 -1.41,-1 -0.59,-0.09 -0.91,0.18 -1.22,0.46 -0.41,0.31 -0.59,1.4 -0.37,1.9 0.14,0.23 0.19,0.18 0.37,0.46 0.77,1.04 2.77,0.63 2.77,-1.14z"/>
  <path class="fil10" d="M23.64 22.14c2.22,0 2.86,0.28 4.63,0.82 0.32,0.09 0.5,0.18 0.77,0.32 0.41,0.13 1.04,0.45 1.41,0.68 0.5,0.32 0.81,0.68 1.09,0.27 0.36,-0.5 0.63,-1.13 1.04,-1.63 0.32,-0.41 1.32,-2.23 1.54,-2.73 0.05,-0.18 0.09,-0.22 0.18,-0.36 0.41,-0.54 0.59,-1.22 0.96,-1.77 0.32,-0.54 0.54,-1.22 0.91,-1.77 0.04,-0.09 0.13,-0.18 0.18,-0.32 0.22,-0.49 0.45,-0.9 0.68,-1.45 0.13,-0.27 0.22,-0.5 0.36,-0.72 0.36,-0.68 1.63,-3.59 2.04,-4.4l1.54 -3.32c0.28,-0.5 0.23,-0.54 0.78,-0.9 0.22,-0.14 0.36,-0.28 0.59,-0.46 0.86,-0.59 1.77,-1.13 2.81,-1.5 1.59,-0.63 3.31,-0.72 4.85,0.05 0.5,0.23 1.18,0.86 1.46,1.27 1.04,1.59 1.22,3.04 1.54,4.86 0.09,0.63 0.14,1.36 0.18,2.04 0.05,0.86 0.27,2.9 0.46,3.81 0.09,0.5 0.18,1.22 0.36,1.77 0.22,-0.05 0.22,-0.05 0.36,-0.23 0.73,-0.77 2.27,-2.09 3.18,-2.49 0.22,-0.09 0.45,-0.28 0.68,-0.37 0.13,-0.09 0.27,-0.13 0.36,-0.18 0.05,0 0.18,-0.13 0.27,-0.18 0.46,-0.23 1.05,-0.41 1.46,-0.64 0.36,-0.18 1.08,-0.4 1.49,-0.49l0.86 -0.23c0.87,-0.27 1.87,-0.32 2.77,-0.32 1.73,0 2.41,0.23 3.72,0.73 0.41,0.18 0.96,0.54 1.27,0.81 1.46,1.23 0.55,1.37 2.14,0.37 0.9,-0.55 1.81,-0.96 2.81,-1.32l0.86 -0.18c1.41,-0.45 3.72,-0.32 5.04,0.14 0.5,0.18 1.22,-0.32 2.81,-0.32 1.32,0 1.82,0.32 2.27,0.22 0.14,-0.36 0.14,-0.81 0.27,-1.22 0.32,-1.36 1.14,-2.86 2.36,-3.63 0.14,-0.09 0.23,-0.23 0.41,-0.32 0.18,-0.09 0.32,-0.13 0.5,-0.27 1.14,-0.73 3.22,-1.09 4.67,-1.27 1.77,-0.23 3.59,-0.36 5.31,-0.68 0.5,-0.09 2.05,-0.59 2.41,-0.59 0.13,0.23 0.36,0.41 0.54,0.68 0.32,0.45 0.55,1.13 0.64,1.72 0.04,0.37 0.04,0.73 0.09,1.09 0,0.86 -0.09,1.45 -0.23,2.18 -0.27,1.18 -0.68,2.27 -1.31,3.36 -0.59,1.04 -1.23,1.86 -2.09,2.63 -0.14,0.14 -0.5,0.36 -0.68,0.5 -0.09,0.04 -0.27,0.14 -0.36,0.18 -0.19,0.09 -0.28,0.09 -0.46,0.18l0.05 0.77c0,1.55 -0.46,3.77 -0.91,5.18 -0.09,0.36 -0.73,2.58 -0.64,2.67 0.14,0.14 1.73,-0.04 2.86,1.37 1.45,1.76 1.18,4.99 0.18,6.94 -0.4,0.81 -0.99,1.77 -1.81,2.22 -0.18,0.14 -0.05,-0.04 -0.14,0.18 0.05,0.18 -0.04,0.05 0.14,0.18 0.5,0.32 0.54,0.14 1.27,0.87 1.68,1.68 1.59,3.26 1.59,5.58 0.41,-0.05 1.59,-0.64 2.27,-0.77 1.54,-0.37 3.54,-0.46 5.12,-0.05 0.41,0.09 0.64,0.36 1,0 0.59,-0.54 1.64,-1.27 2.41,-1.5 0.36,-0.09 0.63,-0.22 1.04,-0.31 1.23,-0.23 2.54,-0.14 3.54,0.45 0.45,0.23 0.86,0.5 1.18,0.95 0.09,0.14 0.14,0.32 0.23,0.41 0.31,0 0.81,-0.18 1.13,-0.23 1.59,-0.18 3.59,0 4.68,0.87 0.27,0.27 0.86,0.86 0.99,1.13 0.23,0.36 0.55,1.09 0.64,1.54 0.27,1.59 0.41,2.14 0.18,3.91 -0.09,0.63 -0.23,1.13 -0.36,1.77 -0.09,0.36 -0.5,1.31 -0.46,1.63 0.14,0.09 0.28,0.14 0.41,0.23 0.14,0.09 0.23,0.18 0.37,0.22 0.27,0.18 0.45,0.41 0.68,0.64 1.31,1.81 0.68,4.67 0.68,6.8 0.04,1.96 0.13,4.77 -0.05,6.67 -0.09,1.14 -0.09,2.5 -0.27,3.64 -0.14,1.13 -0.18,2.49 -0.41,3.58 -0.04,0.14 -0.09,0.23 -0.09,0.36l-0.23 1.27c-0.09,0.64 -0.41,1.91 -0.5,2.45 0,0.37 -0.45,1.86 -0.59,2.32 -0.27,1.04 -0.99,3.54 -1.36,4.49 -0.13,0.27 -0.18,0.41 -0.27,0.73l-1 2.72c0,0 0,0 -0.04,0.04 0,0 0,0 0,0 0,0.05 0,0.05 0,0.05 -0.37,0.68 -0.59,1.36 -0.96,2.04 -0.22,0.46 -0.45,0.91 -0.63,1.32l-1.32 2.58c-0.22,0.46 -0.5,0.82 -0.72,1.23 -0.46,0.82 -1.09,1.68 -1.55,2.45 -1.77,2.95 -5.26,7.3 -7.85,9.8 -0.31,0.32 -0.63,0.64 -0.95,0.95 -2.36,2.27 -5.4,4.9 -8.12,6.67l-1.73 1.18c-0.18,0.09 -0.54,0.28 -0.68,0.37l-0.54 0.36c-0.36,0.23 -0.82,0.5 -1.18,0.73 -0.82,0.54 -1.77,0.95 -2.59,1.4 -0.22,0.14 -0.41,0.23 -0.63,0.37l-1.32 0.59c-0.23,0.13 -0.41,0.22 -0.63,0.31l-2.09 0.91c-0.14,0.09 -0.23,0.09 -0.36,0.14 -0.37,0.18 -0.64,0.31 -1.05,0.45l-1.36 0.5c-0.27,0.09 -0.5,0.18 -0.77,0.27 -0.45,0.18 -0.95,0.32 -1.45,0.5 -0.5,0.18 -1,0.27 -1.55,0.45 -0.36,0.14 -4.12,1.14 -4.58,1.23 -0.54,0.05 -1.18,0.18 -1.68,0.32 -0.81,0.18 -1.72,0.22 -2.58,0.36 -1.5,0.23 -2.86,0.36 -4.5,0.41 -0.59,0.04 -1.18,0.14 -1.81,0.14 -1.95,0.04 -3.99,0.04 -5.95,-0.14 -1.22,-0.09 -2.49,-0.05 -3.58,-0.27 -1.13,-0.23 -2.27,-0.32 -3.36,-0.59 -0.32,-0.05 -0.63,-0.05 -0.91,-0.09l-1.58 -0.37c-0.23,-0.09 -0.5,-0.09 -0.73,-0.18 -0.5,-0.13 -1.13,-0.23 -1.68,-0.36l-1.18 -0.32c-0.13,0 -0.27,-0.04 -0.41,-0.09 -0.22,-0.05 -0.54,-0.14 -0.77,-0.23 -0.18,-0.04 -0.09,-0.04 -0.36,-0.09 -1.36,-0.32 -2.77,-1.09 -3.95,-1.4 -0.36,-0.1 -1,-0.41 -1.41,-0.55l-5.08 -2.31c-0.04,0 -0.09,0 -0.09,-0.05l-0.86 -0.45c-0.41,-0.18 -0.77,-0.46 -1.18,-0.68l-1.27 -0.73c-0.77,-0.45 -2.18,-1.36 -3,-1.9 -2.76,-1.77 -5.21,-3.91 -7.62,-6.09l-1 -0.95c-0.5,-0.5 -0.95,-0.91 -1.45,-1.5 -0.27,-0.31 -0.63,-0.63 -0.95,-0.99 -0.59,-0.73 -1.23,-1.36 -1.82,-2.09 -1.13,-1.5 -2.81,-3.45 -3.76,-5.08 -0.37,-0.59 -0.82,-1.14 -1.14,-1.82 -0.13,-0.23 -0.27,-0.36 -0.41,-0.59 -0.36,-0.54 -1.58,-2.54 -1.77,-3.08 -0.18,-0.46 -0.4,-0.87 -0.63,-1.27l-1.41 -3.04c-0.32,-0.64 -0.45,-1.14 -0.72,-1.77 -0.1,-0.23 -0.19,-0.32 -0.28,-0.64 -0.77,-1.91 -1.45,-3.95 -1.9,-5.94 -0.05,-0.28 -0.14,-0.46 -0.23,-0.78 -0.18,-0.72 -0.41,-1.54 -0.59,-2.26 -0.23,-1.09 -0.36,-2.27 -0.59,-3.36 -0.23,-1.09 -0.32,-2.32 -0.45,-3.45 -0.05,-0.32 -0.09,-0.54 -0.09,-0.95 0,-0.32 -0.09,-0.46 -0.09,-0.82 -0.05,-0.59 -0.1,-1.23 -0.1,-1.86 0,-0.64 -0.13,-1.27 -0.13,-1.82 0,-2.36 -0.09,-7.48 0.41,-9.3 0.13,-0.41 0.18,-0.91 0.31,-1.31 0.32,-1.32 0.73,-2.05 1.46,-3.18 0.41,-0.68 1,-1.13 1.59,-1.59 1.27,-0.95 2.76,-1.5 4.31,-1.9 0.86,-0.19 1.77,-0.32 2.63,-0.46 -0.05,-0.32 0,-0.18 -0.23,-0.36l-1.59 -1.77c-0.45,-0.55 -0.81,-1.09 -1.18,-1.72l-0.68 -1.23c-0.09,-0.18 -0.22,-0.45 -0.32,-0.68 -0.59,-1.63 -0.9,-3.09 -0.9,-4.86l0 -0.04c0,-1.23 0.13,-2.41 0.45,-3.4l0.5 -1.41c0.14,-0.45 0.36,-0.91 0.59,-1.32 0.5,-1.09 1.54,-2.58 2.36,-3.4 0.14,-0.18 0.23,-0.32 0.45,-0.5 0.96,-0.91 1.36,-1.36 2.59,-2.18 1.13,-0.77 1.86,-1.13 3.04,-1.68 0.86,-0.4 2.36,-0.72 2.59,-0.81 0.36,-0.14 0.81,-0.18 1.22,-0.18 0.68,-0.05 0.64,-0.19 1.77,-0.19zm77.64 1.82c-0.05,-0.32 0.5,-2.54 0.59,-3.18 0.05,-0.32 0.09,-1.36 0.32,-1.54 0.27,-0.32 0.68,-0.59 0.95,-0.86 0.82,-0.86 0.73,-0.77 1.32,-1.55 0.09,-0.18 0.22,-0.36 0.36,-0.54 0.45,-0.73 1,-1.54 1.27,-2.4l0.91 -2.77c0.04,-0.28 0,-0.23 0.04,-0.46 0.14,-0.36 0.18,-1.68 0.18,-2.13 0,-0.32 -0.04,-0.5 -0.04,-0.82 0,-1.31 -0.59,-3.17 -1.36,-4.17 -0.55,-0.73 -1.09,-1.27 -1.82,-1.91 -0.68,-0.54 -0.36,-0.5 -1.27,-0.18 -0.54,0.14 -1.09,0.5 -1.68,0.64 -0.9,0.18 -1.77,0.41 -2.72,0.5 -1.63,0.13 -3.31,0.36 -4.9,0.59 -0.59,0.13 -0.95,0.27 -1.5,0.36 -0.31,0.09 -0.5,0.14 -0.77,0.23 -0.32,0.09 -0.45,0.13 -0.68,0.22 -0.09,0.05 -0.23,0.09 -0.36,0.14 -1.95,0.91 -3.04,1.72 -4.31,3.54 -0.14,0.18 -0.23,0.36 -0.37,0.54 -0.22,0.37 -0.36,0.82 -0.54,1.23 -0.41,0 -0.77,0 -1.14,0 -0.49,0.04 -1.31,0.41 -1.76,0.27 -1.77,-0.54 -4.09,-0.5 -5.86,0l-1.72 0.5c-0.37,0.14 -1.18,0.45 -1.5,0.68 -0.59,0.36 -0.68,0 -1.36,-0.41 -0.77,-0.5 -2.41,-1.09 -3.27,-1.13 -0.36,0 -0.63,-0.05 -1,-0.09 -2.08,-0.23 -3.63,0.18 -5.44,0.54l-0.86 0.27c-0.46,0.14 -1.46,0.5 -1.96,0.73 -0.18,0.09 -0.49,0.27 -0.68,0.36 -0.5,0.23 -1.31,0.77 -1.45,0.64l-0.54 -4.04c-0.05,-0.18 -0.14,-0.45 -0.18,-0.73 -0.14,-0.54 -0.23,-1.04 -0.41,-1.4 -0.09,-0.23 -0.14,-0.5 -0.27,-0.73 -0.46,-1.04 -1,-2 -1.82,-2.77 -0.5,-0.5 -0.95,-0.81 -1.59,-1.18 -0.41,-0.22 -0.81,-0.36 -1.27,-0.54 -0.23,-0.09 -0.41,-0.14 -0.68,-0.18 -0.86,-0.18 -0.63,-0.23 -1.68,-0.23 -0.32,0 -0.68,0 -0.91,0.05 -0.36,0 -0.13,0 -0.36,0.09 -0.09,0.04 -0.27,0.04 -0.36,0.04 -1.05,0.14 -1.91,0.46 -2.81,0.91 -1.28,0.63 -3.45,1.9 -4.41,2.86 -0.18,0.18 -1.04,2.09 -1.22,2.49 -0.23,0.46 -0.36,0.82 -0.59,1.27 -0.32,0.82 -0.82,1.68 -1.18,2.55 -0.18,0.45 -0.36,0.77 -0.55,1.22 -0.77,1.72 -1.58,3.27 -2.4,4.95 -0.41,0.81 -0.86,1.58 -1.27,2.45 -0.36,0.81 -0.86,1.49 -1.32,2.31 -0.27,0 -0.41,-0.14 -0.68,-0.23 -0.18,-0.04 -0.41,-0.18 -0.59,-0.22 -1,-0.37 -2.54,-0.73 -3.54,-0.82 -1.95,-0.18 -3.9,-0.09 -5.71,0.32l-1.37 0.36 -3.67 1.63c-0.18,0.1 -0.36,0.14 -0.55,0.28 -0.31,0.31 -1.08,0.81 -1.54,1.09l-1.45 1.22c-1.68,1.59 -3.04,3.31 -4.18,5.36 -0.22,0.4 -0.68,1.31 -0.86,1.81 -0.09,0.23 -0.13,0.41 -0.22,0.64 -0.23,0.63 -0.41,1.36 -0.55,2.04l-0.23 0.63 -0.13 3.41c0,1.09 0.36,3.49 0.77,4.49 0.14,0.36 0.27,0.86 0.45,1.22l0.87 1.73c0.13,0.22 0.27,0.32 0.27,0.59 -0.23,0.18 -0.68,0.27 -1,0.45 -0.18,0.09 -0.23,0.14 -0.45,0.23 -0.64,0.23 -1.91,1.18 -2.36,1.63 -0.14,0.14 -0.23,0.14 -0.37,0.32 -0.68,0.73 -1.22,1.32 -1.77,2.22 -1.13,1.82 -1.31,3.09 -1.81,4.95l-0.23 1.81c0,0.23 0,0.37 -0.04,0.59 -0.14,0.82 -0.14,5.63 -0.14,6.67 0.05,3.73 0.36,7.49 1.04,11.17 0.23,1.54 0.59,2.99 0.91,4.49l0.32 1c0.04,0.22 0.09,0.36 0.13,0.54 0.05,0.18 0.1,0.32 0.14,0.55 0.27,1.13 0.64,2.22 1.04,3.35 0.23,0.55 1,2.95 1.18,3.18l1 2.31c0.09,0.23 0.14,0.28 0.18,0.5 0.14,0.37 1.82,3.59 2.09,4.04l0.95 1.68c0.5,0.86 0.96,1.73 1.55,2.54 0.18,0.23 0.36,0.55 0.54,0.77 0.55,0.82 1.09,1.64 1.68,2.41 0.36,0.45 0.73,1.04 1.14,1.54 0.72,0.95 1.63,2.04 2.45,2.91l2.63 2.76c0.54,0.59 2.13,2.09 2.77,2.64 0.22,0.18 0.45,0.4 0.72,0.63 0.59,0.55 1.77,1.41 2.18,1.82 0.23,0.22 0.54,0.4 0.77,0.63l4.36 3.04c1,0.64 1.9,1.23 2.95,1.77l1.68 0.95c0.31,0.19 0.63,0.32 0.95,0.5l1.31 0.68c0.19,0.05 0.32,0.09 0.46,0.19l4.72 2.04c1.31,0.5 2.58,0.9 3.99,1.36 0.23,0.09 0.23,0.09 0.5,0.18 0.18,0 0.41,0.09 0.59,0.14 0.36,0.09 0.63,0.22 1.04,0.27l2.09 0.59c0.91,0.27 3.63,0.77 4.49,0.91 0.27,0 0.37,0 0.59,0.09 0.37,0.09 2.41,0.31 2.95,0.41l3.77 0.27c0.41,0.09 0.86,0 1.27,0.09 0.32,0.04 -0.05,0.04 0.27,0.04 0.68,0.09 3,0.05 3.68,0 1.04,0 0.72,-0.09 1.18,-0.09 1.04,0 5.17,-0.31 6.12,-0.59l2.32 -0.36c0.5,-0.09 0.72,-0.05 1.18,-0.18l1.67 -0.36c0.32,-0.05 0.28,-0.1 0.55,-0.14 1.63,-0.41 3.67,-0.91 5.26,-1.45l1 -0.32c0.23,-0.09 0.27,-0.14 0.5,-0.23 0.41,-0.09 0.64,-0.27 0.95,-0.36 0.37,-0.14 0.64,-0.27 1.05,-0.36 0.22,-0.05 0.22,-0.09 0.45,-0.14 0.27,-0.09 0.27,-0.14 0.45,-0.27 0.46,-0.23 0.96,-0.36 1.41,-0.55 0.77,-0.31 3.27,-1.49 3.63,-1.77 0.18,-0.09 0.23,-0.13 0.46,-0.22 0.09,-0.05 0.18,-0.05 0.27,-0.14 0.5,-0.27 1.04,-0.5 1.49,-0.82l1.14 -0.63c0,0 0,-0.05 0.04,-0.05 0,0 0.05,-0.04 0.1,-0.04 0.31,-0.18 0.59,-0.32 0.86,-0.5l2.45 -1.59c0.13,-0.09 0.27,-0.14 0.41,-0.27 0.18,-0.09 0.22,-0.18 0.4,-0.27l2.68 -2c0.18,-0.14 0.32,-0.18 0.46,-0.27 0.22,-0.18 0.45,-0.41 0.72,-0.64 0.23,-0.18 0.5,-0.36 0.73,-0.59l2.18 -1.9c1.13,-1.05 2.31,-2.18 3.35,-3.32 0.14,-0.13 0.23,-0.27 0.32,-0.36 0.59,-0.59 1.14,-1.18 1.63,-1.77l3.54 -4.49c0.32,-0.45 1.77,-2.45 1.96,-2.81l1.04 -1.68c0.09,-0.14 0.14,-0.23 0.23,-0.41 0.18,-0.32 0.31,-0.5 0.5,-0.86l0.95 -1.77c0.86,-1.36 1.63,-3.45 2.45,-4.95 0.09,-0.18 0.04,-0.27 0.13,-0.5 0.46,-0.91 0.78,-1.95 1.18,-2.9 0.23,-0.5 0.82,-2.41 1,-3.04 0.09,-0.32 0.23,-0.64 0.32,-1 0.18,-0.68 0.41,-1.45 0.54,-2.13 0.05,-0.23 0.14,-0.32 0.14,-0.55l0.41 -1.68c0.27,-1.09 0.91,-4.53 1,-5.67l0.18 -1.13c0.04,-0.23 0,-0.46 0.04,-0.68 0.14,-1.46 0.23,-2.95 0.28,-4.45 0.04,-1.73 0.09,-3.54 0.09,-5.31 0,-1.82 0.09,-3.45 0.09,-5.31 -0.05,-1.54 -0.5,-2.9 -1.27,-4.13 -0.14,-0.27 -0.55,-0.63 -0.55,-0.86 0,-0.32 0.28,-1.36 0.32,-1.73 0.05,-0.22 0,-0.4 0.05,-0.63 0,-0.23 0.04,-0.23 0.09,-0.59 0,-1.04 -0.09,-2.13 -0.28,-3.13 0,-0.14 -0.18,-0.91 -0.22,-1.04 -0.18,-0.32 -0.23,-0.69 -0.37,-1 -0.18,-0.37 -0.31,-0.55 -0.45,-0.91 -0.14,-0.27 -0.36,-0.59 -0.54,-0.82 -0.32,-0.41 -0.87,-1 -1.32,-1.31 -0.32,-0.23 -0.59,-0.37 -0.86,-0.55 -0.86,-0.59 -2.04,-0.81 -3.09,-0.95 -0.72,-0.05 -2.36,0.04 -2.54,-0.05 -0.23,-0.13 -0.5,-0.4 -0.82,-0.54 -0.27,-0.14 -0.72,-0.55 -1.9,-0.82 -0.36,-0.09 -0.73,-0.18 -1.14,-0.18 -1.99,-0.23 -3.81,0.27 -5.49,1.18 -1.13,0.64 -0.54,0.73 -1.95,0.5 -0.41,-0.05 -0.86,-0.05 -1.27,-0.05l-2.63 0.1c-0.09,-0.46 -0.36,-1.09 -0.59,-1.5l-0.45 -0.86c-0.23,-0.37 -0.37,-0.41 -0.14,-0.82 0.09,-0.14 0.14,-0.23 0.23,-0.41 0.32,-0.63 0.45,-1.32 0.68,-2 0.18,-0.59 0.27,-1.63 0.32,-2.26 0.04,-0.46 0.04,-0.96 0,-1.32 -0.05,-0.41 -0.09,-0.82 -0.14,-1.23 -0.09,-0.63 -0.27,-1.4 -0.59,-2.04 -0.64,-1.27 -1.23,-2.09 -2.36,-2.81z"/>
  <path class="fil11" d="M115.48 84.49l-0.09 6.99c0,0.72 -0.09,0.77 -0.63,1.59 -0.14,0.18 -0.09,0.22 -0.18,0.41 -0.05,0.09 -0.19,0.22 -0.28,0.31 -0.27,0.46 -0.54,1 -0.86,1.46l-0.91 1.36c-0.13,0.13 -0.13,0.09 -0.27,0.31 -0.27,0.55 -1.27,1.77 -1.68,2.32l-1.59 1.9c-0.36,0.37 -0.63,0.78 -1.08,1.23l-1.09 1.18c-0.82,0.95 -2.86,2.77 -3.82,3.63l-1.86 1.63c-0.13,0.09 -0.22,0.09 -0.36,0.23l-1.09 0.77c0,0 -0.04,0.05 -0.04,0.05l-0.5 0.4c-0.14,0.14 -0.86,0.78 -1,0.64 -0.14,-0.14 -0.05,-1.77 -0.09,-2.22 -0.09,-0.64 -0.05,-1.59 -0.05,-2.27 -0.04,-2.91 -0.18,-6.17 -0.22,-9.08 0,-1.54 0,-3.04 -0.05,-4.58l-0.23 -9.08c-0.09,-0.49 -0.04,-1.63 -0.04,-2.22 0,-1.68 -0.32,-7.8 0.04,-9.17 0.09,-0.27 0.23,-0.59 0.32,-0.86 0.23,-0.68 0.32,-1 0.68,-1.63l0.46 -0.73c0.31,-0.5 0.68,-0.95 1.04,-1.31 0.73,-0.68 1.81,-1.59 2.68,-2 0.5,-0.18 1.27,-0.5 1.77,-0.59 1.68,-0.27 3.49,-0.36 5.08,0.36 1.04,0.46 0.68,0.28 1.54,0.78 0.55,0.27 1.54,1.13 1.95,1.58 0.64,0.64 1.05,1.27 1.45,2.09l0.55 1.23c0.18,0.63 0.32,0.81 0.41,1.31 0.13,0.82 0.18,1.45 0.18,2.36l-0.14 9.62zm-22.96 31.04c0.27,-0.09 1.55,-0.86 2.04,-1.14l3.18 -2.08c0.09,-0.05 0.23,-0.14 0.32,-0.18l4.4 -3.5c0.36,-0.18 3.13,-2.77 3.36,-2.99 0.22,-0.23 0.32,-0.37 0.54,-0.55l2.45 -2.77c0.55,-0.59 1.91,-2.22 2.36,-2.85 0.5,-0.82 0.68,-0.82 1.32,-1.87 0.09,-0.13 0.13,-0.18 0.23,-0.27 0.09,-0.13 0.13,-0.22 0.22,-0.36 0.05,-0.09 0.14,-0.14 0.23,-0.27 0.04,-0.05 0.23,-0.5 0.59,-1l1.22 -1.95c0.05,-0.09 0.14,-0.18 0.23,-0.32l0.55 -1c0.13,-0.32 0.18,-0.41 0.36,-0.68l1.04 -2.09c0.27,-0.63 0.59,-1.09 0.86,-1.81 0.09,-0.23 0.09,-0.18 0.19,-0.36 0.22,-0.64 0.77,-1.68 0.9,-2.23 0.14,-0.36 0.18,-0.45 0.32,-0.77 0.14,-0.36 0.64,-2 0.82,-2.36 0.09,-0.23 0.13,-0.54 0.22,-0.82 0.05,-0.18 0.23,-0.54 0.28,-0.72 0.18,-0.86 0.77,-2.36 0.86,-3.31l0.63 -3.13c0.05,-0.23 0.09,-0.5 0.14,-0.73l0.41 -3.86c0,-0.13 0,-0.09 0.04,-0.18 0.09,-0.32 0.09,-0.73 0.09,-1.04 0,-0.41 0.05,-0.55 0.1,-0.87l0.09 -2.72c0,-0.18 0,-0.32 0,-0.5 0,-0.04 0.04,-0.13 0,-0.22 0,-0.09 0.04,0.04 0,-0.09 0,-0.1 0,-0.14 -0.23,-0.19l-26.73 0c-1.13,0 -2.81,-0.09 -3.85,0.05 0.13,0.41 0.09,11.52 0.09,12.93l0 38.21c-0.05,0.23 -0.05,0.13 -0.05,0.36 0,0 0.05,0.32 -0.04,0.18l0.22 0.05z"/>
  <path class="fil12" d="M41.43 70.38l-0.77 -0.05c-0.14,0.14 -0.41,0.14 -0.59,0.19l-2.68 0.45c-0.77,0.18 -0.09,0.13 -1.04,0.23 -0.14,0.68 0.27,23.05 0.27,23.05 0.13,0.68 0.04,3.26 0.09,4.04 0,1.81 0.09,3.63 0.09,5.4 0,1.81 0.05,3.67 0.05,5.44l0.04 5.54c0.18,0.22 0.23,0.13 0.45,0.27 0.28,0.09 0.19,0.18 0.55,0.18 0.09,-2.09 -0.05,-4.45 -0.05,-6.58 0,-2.22 -0.04,-4.45 -0.04,-6.67 0,-4.36 -0.14,-8.71 -0.18,-13.07 -0.05,-4.35 -0.09,-8.76 -0.18,-13.11 0,-0.55 0,-1.14 0,-1.68 0,-0.73 0.27,-0.55 0.86,-0.77 0.72,-0.32 1.86,-0.59 2.72,-0.64 0.5,-0.04 1.13,-0.04 1.63,0 0.68,0.05 1.41,0.23 2,0.46 0.32,0.09 0.86,0.36 1.18,0.54 0.09,0.09 0.09,0.09 0.23,0.18 0.31,0.18 0.36,0.37 0.27,0.86 -0.05,0.41 -0.09,10.08 -0.09,10.49 0,0.95 -0.05,1.81 -0.05,2.76 0,0.78 0.09,2.14 0,2.82 -0.09,0.68 -0.09,10.34 -0.09,11.21l-0.04 4.17c0,0.54 -0.09,0.91 -0.05,1.41l-0.09 8.44c0,0.45 0,0.9 0,1.36 0,0.27 -0.04,0.45 -0.04,0.63 0,0.23 0.04,0.41 0.04,0.73 0.14,0.04 0.09,0.04 0.18,0.09 1.23,0.59 0.77,0.05 0.86,-2.72 0.05,-0.96 0.05,-1.95 0.05,-2.95 0,-2.04 0.09,-3.9 0.09,-5.9 0,-0.32 0.05,-0.41 0.05,-0.73l0 -5.22c0,-0.31 0,-1.22 0.04,-1.49 0.09,-0.32 0.09,0 0.09,-0.64 -0.04,-4.26 0.09,-8.48 0.09,-12.66 0,-0.95 0,-2.04 0.05,-2.99 0.09,-0.86 0,-2.04 0,-2.95 0,-0.5 0.04,-0.91 0.04,-1.45 0,-0.5 0,-1 0,-1.5 0,-0.59 0.19,-5.81 0.09,-5.95 -0.18,-0.09 -0.13,-0.04 -0.31,-0.09 -0.14,-0.04 -0.23,-0.13 -0.32,-0.18l-1.41 -0.41c-0.13,-0.04 -0.27,-0.04 -0.41,-0.09 -0.18,-0.04 -0.04,-0.09 -0.31,-0.13l-1.55 -0.23c-0.59,-0.09 -1.22,-0.05 -1.81,-0.09z"/>
  <g>
   <path class="fil13" d="M96.67 14.01c0.77,-0.31 1.9,-1.44 2.5,-2.04 0.18,-0.27 0.59,-0.77 0.68,-1.14 0.59,-0.99 1.09,-2.08 1.4,-3.44 0.05,-0.46 0.28,-0.91 0.28,-1.46 -0.23,0 -0.41,0.14 -0.55,0.23 -0.88,0.44 -2.15,0.73 -3.13,0.73l-2.95 0.22c-0.22,0.05 -0.45,0.09 -0.63,0.14 -0.41,0.05 -1.41,0.5 -1.73,0.68 -0.9,0.56 -1.24,0.79 -1.95,1.5 -0.68,0.72 -1.59,2.77 -1.54,3.63l0.77 0.5c2.34,1.17 4.36,1.65 6.85,0.45z"/>
   <path class="fil14" d="M96.67 14.01c0.77,-0.31 1.89,-1.44 2.49,-2.04 0.19,-0.27 0.59,-0.77 0.69,-1.14 0.58,-0.99 1.08,-2.08 1.4,-3.44 0.04,-0.42 0.24,-0.83 0.27,-1.31 -2.17,3.78 -4.53,7.33 -12.32,7.08l0.62 0.4c2.34,1.17 4.36,1.65 6.85,0.45z"/>
  </g>
  <path class="fil15" d="M98.74 73.85l0 0.14 0 0.41c0.23,0.04 1.27,0 1.59,-0.05l3.9 -0.18c0.32,0.05 0.41,0.14 0.68,-0.04 0,-0.32 -0.13,-0.23 -0.59,-0.46 -0.22,-0.09 -0.45,-0.18 -0.68,-0.27 -0.18,-0.09 -0.09,-0.09 -0.31,-0.18 -0.77,-0.32 -0.5,-0.27 -0.96,-0.45 -0.18,-0.1 -0.99,-0.37 -1.36,-0.59 -0.27,-0.14 -1.13,-0.55 -1.4,-0.55l-0.28 0.68c-0.27,0.55 -0.18,0.32 -0.36,0.95 -0.09,0.28 -0.05,0.41 -0.23,0.59zm2 -4.13c-0.05,0.1 -0.59,0.73 -0.59,0.87 0.14,0.27 0.54,0.36 0.77,0.5 0.18,0.09 0.27,0.18 0.41,0.27 0.23,0.09 0.27,0.04 0.41,0.23 0.36,0.09 1.4,0.81 1.86,1.08 0.32,0.19 0.63,0.32 0.91,0.5 0.13,0.09 0.09,0.05 0.22,0.19l0.18 0.13c0.5,0.32 0.73,0.14 0.32,-0.36 -0.13,-0.14 -0.32,-0.27 -0.36,-0.5 -0.27,-0.32 -0.5,-0.73 -0.82,-1.09 -0.13,-0.23 -0.22,-0.32 -0.41,-0.54 -0.09,-0.19 -0.36,-0.46 -0.4,-0.59 -0.32,-0.19 -1.05,-1.64 -1.37,-1.64 -0.22,0 -0.68,0.68 -1.13,0.95zm3.86 -2.45c-0.28,0.05 -0.55,0.23 -0.77,0.23 -0.1,0.09 0,0.05 -0.23,0.18 -0.64,0.37 -0.91,0.23 -0.64,0.68 0.14,0.28 0.05,0.05 0.09,0.32 0.14,0.14 0.41,0.73 0.55,0.91 0.23,0.27 1.59,2.54 1.59,2.81l0.13 0.14c0.18,0.23 0.37,0.86 0.68,0.91 0.09,-0.14 0.41,-6.13 0.32,-6.27 -0.23,-0.22 -1.45,0.09 -1.72,0.09zm4.81 3c0.04,-0.14 0.18,-0.23 0.31,-0.41 0.1,-0.09 0.23,-0.32 0.32,-0.36 0.14,-0.37 0.5,-0.46 0.55,-0.82 -0.05,-0.18 -0.77,-0.59 -1,-0.72 -0.18,-0.1 -0.23,-0.1 -0.46,-0.14 -0.27,-0.14 -0.4,-0.27 -0.72,-0.36l-0.68 -0.19c-0.14,0 -0.05,0 -0.18,0 -0.19,0.05 -0.14,0.1 -0.19,0.23 0,0.05 0,0.14 0,0.23l-0.63 4.04c-0.05,0.63 -0.23,1.04 -0.23,1.63 0.37,-0.04 0.32,-0.09 0.46,-0.32 0.13,-0.31 0.77,-0.95 1.04,-1.22 0.23,-0.23 0.45,-0.55 0.68,-0.82 0.18,-0.23 0.5,-0.68 0.73,-0.77zm-2 3.18c0.23,0 0.41,-0.09 0.59,-0.19l2.09 -0.95c0.09,-0.04 0.18,-0.04 0.32,-0.09 0.18,-0.04 0.13,-0.09 0.36,-0.14 0.27,-0.09 0.41,-0.18 0.68,-0.27 0.18,-0.09 1.13,-0.5 1.27,-0.63 -0.05,-0.32 -0.36,-0.64 -0.55,-0.87 -0.31,-0.4 -0.27,-0.72 -0.86,-0.72 -0.22,0.27 -1.09,0.95 -1.49,1.41 -0.1,0.09 -0.14,0.18 -0.23,0.22 -0.14,0.09 -0.18,0.09 -0.27,0.23l-1.64 1.45c-0.04,0.05 -0.09,0.09 -0.13,0.14 -0.14,0.13 -0.14,0.18 -0.14,0.41zm2.95 -0.46c-0.05,0 -0.45,0.14 -0.59,0.14 -0.23,0.09 -0.41,0.13 -0.59,0.23 -0.23,0.09 -0.95,0.36 -1.18,0.31 -0.05,0.05 -0.05,0.05 -0.14,0.09 -0.18,0.09 -0.31,0.05 -0.31,0.28 0.18,0.13 2.58,0 3.08,0l3.04 -0.14c0.18,-0.36 -0.27,-1.36 -0.41,-1.68 -0.54,-0.09 -2.36,0.73 -2.9,0.77zm0.5 25.1c0.09,-0.19 0.09,-0.14 0.23,-0.32 0,0 0.04,-0.09 0.04,-0.14 0.14,-0.09 0.09,-0.04 0.18,-0.13 0.05,-0.14 0.82,-1.14 0.96,-1.32l1.54 -2.41c0.32,-0.45 0.23,-0.72 0.23,-1.31l0 -17.38c-0.14,-0.14 -0.19,-0.18 -0.32,-0.23 0,0 -14.75,0.46 -15.02,0.5 -0.14,0.41 0,3.54 0,4.27l0.04 2.08c0.05,0.59 0,1.59 0.05,2.23 0,2.9 0.09,5.72 0.09,8.57 0.04,2.91 0.14,5.68 0.14,8.58 0,2.04 0.13,4.27 0.13,6.35 0,0.32 -0.04,2 0.05,2.14 0.04,0 0,0.09 0.22,0l0.41 -0.32c0.14,-0.09 0.18,-0.09 0.27,-0.14 0,0 0.87,-0.77 1.18,-0.95l1.91 -1.73c0.05,-0.04 0.14,-0.13 0.18,-0.18 0.41,-0.2 1.17,-1.01 1.54,-1.36 0.05,-0.04 0.55,-0.63 0.91,-0.91 0.14,-0.13 0.18,-0.27 0.32,-0.4 0.27,-0.28 0.5,-0.46 0.73,-0.73 0.22,-0.27 0.45,-0.5 0.68,-0.77l1.72 -1.95c0.14,-0.14 0.18,-0.28 0.32,-0.41l0.95 -1.23c0.09,-0.13 0.27,-0.27 0.32,-0.4z"/>
  <path class="fil16" d="M108.18 75.9c-1.4,0.04 -0.95,-0.14 -0.95,1.77 0,0.95 0.04,1.9 0.04,2.76 0,0.96 0,1.91 0,2.86 0,0.46 0,0.96 0,1.41 0,0.32 -0.09,0.5 0.19,0.54 0.04,0.05 0.59,0 0.68,0 0.9,0 1.81,-0.09 2.72,-0.09 0.27,0 0.54,-0.09 1.27,-0.09l1.04 -0.04c0.23,-0.05 0.09,0.04 0.23,-0.14 0.09,-0.09 0.05,0 0.09,-0.23l0 -2.08c0,-0.91 0.09,-6.58 0,-6.95l-5.31 0.28z"/>
  <path class="fil16" d="M99.29 76.17c-0.05,0.63 0.13,3.67 0.13,4.76 0.05,0.46 0.09,0.73 0.09,1.14 0.05,0.95 0.05,1.36 0.14,2.36 0.05,0.59 -0.09,1.13 0.18,1.18l5.27 -0.09c0.27,0 0.31,0 0.36,-0.23 0.04,-0.05 0,-0.18 0,-0.23l-0.05 -8.62c0,-0.59 -0.09,-0.45 -1.13,-0.45l-4.54 0c-0.32,0 -0.32,0.04 -0.45,0.18z"/>
  <path class="fil16" d="M100.06 90.24c-0.91,0 -0.5,-0.05 -0.5,2.08l0.32 7.31c0.04,0.27 0.04,0.27 0.32,0.27 0.81,0 1.86,-0.09 2.67,-0.09 0.5,0 0.86,-0.05 1.32,-0.05 0.91,-0.04 1.27,0.09 1.31,-0.36 0,-0.09 0,-0.23 0,-0.36l0 -6.54c0.05,-0.31 0.05,-0.77 0.05,-1.18 0,-0.45 0.09,-0.86 -0.09,-1.04 -0.18,-0.09 -0.41,-0.09 -0.68,-0.09l-3.45 0c-0.45,0 -0.82,0.05 -1.27,0.05z"/>
  <path class="fil16" d="M102.28 106.53l0.14 0c0,0.18 0,0.09 -0.14,0.13l0 -0.13zm-2.36 2.04c0.41,0.04 0.37,-0.09 0.59,-0.28 0.09,-0.09 0.18,-0.13 0.28,-0.18 0.04,-0.04 0.04,-0.04 0.09,-0.09l1.09 -0.81c0.45,-0.37 0.59,-0.59 0.63,-0.64 0.09,-0.09 0.18,-0.09 0.27,-0.18 0.14,-0.14 0.05,-0.09 0.18,-0.23 0.05,-0.04 0.14,-0.09 0.23,-0.18 0.68,-0.54 0.55,-0.59 0.86,-0.82 0.09,-0.04 0.37,-0.22 0.5,-0.36 1.18,-1.09 0.91,-0.68 0.91,-2.45 0,-0.18 0.05,-1.41 -0.05,-1.59 -0.22,-0.18 -1.36,-0.09 -1.72,-0.09 -0.82,0 -2.9,-0.04 -3.54,0 -0.09,0 -0.36,0 -0.45,0.05 -0.18,0 -0.18,0.04 -0.23,0.22 -0.05,0.23 0.09,2.14 0.09,2.54 0.05,0.32 0.05,0.59 0.09,0.87 0,0.13 -0.04,0.27 0,0.41l0.18 3.81z"/>
  <path class="fil16" d="M113.22 86.02c0,0 0,0 -0.05,0 -0.27,-0.1 -0.95,-0.1 -1.27,-0.1l-4.31 0c-0.36,0 -0.32,0.05 -0.32,0.46l0.14 3.45c0,0.22 0,1.13 0.09,1.36 0.23,0.09 4.99,0 5.67,-0.05 0.23,-0.63 0.09,-1.77 0.14,-2.49 0.04,-0.64 0.09,-1.95 0,-2.59 0,0 -0.05,-0.04 -0.05,-0.04 0,0 0,0 -0.04,0z"/>
  <path class="fil16" d="M107.36 101.53c0.32,0 0.64,-0.59 0.96,-0.86 0.41,-0.45 0.5,-0.68 0.81,-1.04 0.28,-0.32 2.27,-2.77 2.45,-3.13l0.78 -1.14c0.09,-0.13 0.81,-1 0.4,-1.18 -0.13,-0.04 -4.31,-0.04 -4.99,0.05 -0.5,0.04 -0.36,0.23 -0.36,1l-0.05 6.3z"/>
  <path class="fil16" d="M106.09 103.08c0.59,-0.09 0.46,-0.91 0.46,-1.41l-0.09 -24.5c0,-0.32 0.09,-1.41 -0.09,-1.68l-0.18 0c-0.14,0.13 -0.1,0.5 -0.1,0.86 0.05,6.53 0,13.25 0,19.83 0,2.27 -0.04,4.63 0,6.9z"/>
  <path class="fil16" d="M105.28 86.24c-0.41,-0.04 -4.68,0.14 -5.45,0.14 -0.41,0 -0.32,0.22 -0.27,0.59 0.05,0.45 0,0.45 0.18,0.72 0.86,0.05 1.95,0 2.82,0l2.13 0c0.63,0 0.68,0.05 0.68,-0.4 0,-0.32 0,-0.78 -0.09,-1.05z"/>
  <path class="fil16" d="M112.9 93.64c0.14,-0.27 0.23,-0.95 0.18,-1.32l-4.76 0.14c-0.5,0.09 -0.82,-0.23 -0.68,1.18l5.26 0z"/>
  <path class="fil16" d="M99.74 89.55l5.54 -0.04c0.04,-0.32 0.04,-0.77 -0.05,-1.04 -0.13,-0.05 -5.13,-0.23 -5.49,-0.19l0 1.27z"/>
  <path class="fil17" d="M14.31 37.44c0,0.84 -0.03,1.87 0.29,2.64 0.17,0.41 0.3,0.83 0.56,1.19 0.01,0.01 0.02,0.02 0.03,0.03 0.29,0.41 0.51,0.87 0.9,1.23 0.15,0.13 0.08,0.08 0.21,0.21l0.21 0.22c0.01,0.01 0.03,0.05 0.05,0.06l0.9 0.85c0.01,0.01 0.02,0.02 0.03,0.03 0.29,0.3 0.39,0.29 0.65,0.51 0.15,0.13 0.07,0.1 0.22,0.21l0.99 0.77c0.12,0.11 0.13,0.13 0.27,0.21l2.21 1.94c0.15,0.16 0.12,0.21 0.29,0.35l0.97 1.26c0.65,1.08 0.43,0.96 0.7,1.49 0.1,0.21 0.12,0.45 0.18,0.67 0.1,0.37 0.25,0.63 0.24,1.09 0,0.64 0.15,1.88 -0.11,2.44 -0.33,0.7 -0.27,1.52 -0.15,1.98 1.53,-0.13 3.33,-5.99 2.87,-8.41 -0.04,-0.19 -0.06,-0.14 -0.11,-0.26 -0.11,-0.28 0.02,-0.32 -0.17,-0.63 -0.04,-0.06 -0.13,-0.17 -0.15,-0.22 -0.07,-0.15 -0.03,-0.14 -0.07,-0.31 -0.05,-0.18 -0.48,-0.9 -0.59,-1.01 -0.13,-0.13 -0.07,0.01 -0.17,-0.2 -0.23,-0.52 -0.07,-0.34 -0.67,-0.87l-0.22 -0.21c-0.07,-0.09 -0.09,-0.13 -0.15,-0.22l-0.36 -0.39c-0.1,-0.09 -0.01,-0.02 -0.11,-0.1 -0.17,-0.13 -0.19,-0.08 -0.31,-0.28 -0.31,-0.48 -1.02,-0.76 -1.4,-1.15l-1.06 -0.96c-0.01,-0.01 -0.04,-0.04 -0.06,-0.05l-3.27 -3.34c-0.06,-0.09 -0.08,-0.15 -0.13,-0.24 -0.9,-1.46 -0.9,-2.23 -0.9,-4.04 0,-0.57 0.17,-1.26 0.36,-1.72 0.09,-0.21 0.1,-0.29 0.24,-0.46 0.13,-0.15 0.19,-0.36 0.27,-0.57 0.24,-0.57 0.3,-0.38 0.69,-0.91 0.12,-0.16 0.08,0 0.09,-0.28 -0.37,0 -0.47,0.16 -0.72,0.34 -0.1,0.06 -0.12,0.1 -0.2,0.17l-0.59 0.53c-0.17,0.11 -0.08,0.07 -0.19,0.18 -0.2,0.2 -0.15,0.1 -0.33,0.37l-0.63 0.85c-0.12,0.16 -0.16,0.31 -0.28,0.47 -0.21,0.28 -0.36,0.62 -0.48,0.96l-0.25 0.5c-0.08,0.21 -0.11,0.3 -0.19,0.55 -0.22,0.8 -0.25,1.03 -0.35,1.84 -0.03,0.26 -0.05,0.37 -0.05,0.69zm54.99 13.25l-0.05 0.06c-0.18,0.13 0.05,-0.02 -0.33,0.51 -0.17,0.24 -0.03,0.15 -0.14,0.35 -0.68,1.28 -1.19,2.37 -1.43,3.84 -0.27,1.66 -0.63,3.48 0.75,4.64 0.35,0.3 1.15,-0.11 1.18,-0.16 0.16,-0.26 -1.52,-1.47 -0.99,-5.02 0.03,-0.1 0.4,-1.95 1.33,-4.38 -0.2,0.02 -0.2,0.06 -0.32,0.16zm39.51 -3.39c-0.12,-0.19 -0.19,-0.17 -0.48,-0.17 0,1.01 0.97,1.91 0.65,4.27 -0.06,0.45 0.03,0.32 -0.13,1.31l-0.2 1.18c-0.02,0.29 -0.03,0.35 -0.07,0.62 -0.11,0.64 -0.1,0 -0.22,0.85 -0.06,0.4 -0.13,0.17 -0.19,0.55 -0.1,0.6 -0.43,0.96 -0.43,1.39 0.37,-0.04 0.68,-0.59 0.88,-0.89 0.08,-0.12 0.09,-0.09 0.17,-0.25 0.07,-0.13 0.08,-0.2 0.15,-0.33 1.2,-2.41 2.42,-5.95 0.39,-8.16 -0.2,-0.22 -0.15,-0.33 -0.52,-0.37zm-43.71 0.89c0.29,0 0.25,-0.09 0.29,-0.35 0.05,-0.35 0.09,-0.26 0.15,-0.49 0.07,-0.28 -0.06,-0.19 0.02,-0.5 0,0 0.14,-0.16 -0.04,-0.52 -0.28,0.02 -0.3,0.18 -0.36,0.59 -0.03,0.16 -0.02,0.21 -0.02,0.29 0.01,0.54 -0.26,0.53 -0.04,0.98zm-43.12 -19.91l0 0.21c0.28,0 0.38,0.06 0.58,0.06 1.21,-0.04 0.39,-0.14 1.86,0.06 0.34,0.05 0.5,0.14 0.8,0.2 0.42,0.09 1.38,0.54 1.7,0.81 0.38,0.31 0.41,0.26 0.82,0.67 0.09,0.09 0.15,0.16 0.24,0.24 0.34,0.29 0.14,0.13 0.47,0.54 0.26,0.31 0.38,0.39 0.66,-0.02 0.08,-0.12 0.13,-0.18 0.22,-0.31 0.15,-0.25 0.31,-0.67 0.31,-0.97 0,-0.4 -0.3,-0.63 -0.55,-0.88 -0.38,-0.37 -0.4,-0.3 -0.71,-0.41 -0.4,-0.13 -0.21,-0.11 -0.82,-0.25 -1.47,-0.33 -3.08,-0.27 -4.57,-0.1 -0.33,0.03 -0.66,0.15 -1.01,0.15zm77.59 24.09c-0.04,0.09 -0.06,0.19 -0.11,0.26 -0.82,1.3 -0.87,4.87 0.18,6.33 0.16,0.22 0.86,0.55 0.86,0.04 0,-0.24 -0.01,0.03 -0.07,-0.19 -0.39,-1.28 -0.68,-2.7 -0.22,-3.99 0.03,-0.08 1.35,-5.15 0.66,-4.77 -0.03,0.01 -1.17,2.08 -1.3,2.32zm-16.74 4.87c-0.04,0.91 -0.25,2.2 0.76,2.75 0.68,0.38 0.54,0.32 0.87,0.22 1.38,-0.5 0.17,-0.24 -0.04,-0.52 0.42,-1.56 -0.42,-0.81 -0.42,-2.13l0 -1.06c0,-1.1 1.85,-6.44 1.38,-6.44l-0.16 0c0,0.24 -2.26,4.39 -2.39,7.18zm-28.01 -10.06c0,0.71 0.13,0.39 0.26,0.87l0.18 0.66c0.06,0.23 0.09,0.44 0.17,0.69 0.27,0.82 0.35,2.36 0.5,2.85 0.23,0.77 0.44,6.01 0.44,7.12 0.12,0.03 0.16,0.05 0.32,0.05 0.1,-0.43 0.04,-0.51 0.01,-0.91l0.1 -2.01c0.04,-1.44 -0.01,-3.46 -0.01,-4.95 0,-0.14 -0.1,-0.71 -0.1,-1.17 -0.01,-0.71 -0.16,-2.68 -0.37,-3.21 -0.15,-0.4 -0.15,-0.36 -0.7,-0.36 -0.52,0 -0.8,0.01 -0.8,0.37zm-23.72 13.09c0.33,0.02 0.42,-0.04 0.67,-0.1 -0.02,-0.23 -1.22,-0.43 -1.22,-3.19 0,-1.59 1.22,-5.52 1.22,-5.54 0,-0.4 0.02,-0.28 0.31,-0.93 0.07,-0.15 0.06,-0.3 0.07,-0.51 -0.59,-0.13 -1.83,2.79 -1.99,3.35 -0.46,1.71 -2.08,6.73 0.94,6.92zm88.41 -13.25c0,0.64 0.93,0.4 0.3,2.59l-0.32 1.18c-0.03,0.15 -0.15,0.33 -0.2,0.54 -0.03,0.09 -0.04,0.17 -0.07,0.3 -0.04,0.14 -0.06,0.16 -0.1,0.27 -0.07,0.2 -0.08,0.44 -0.14,0.61l-0.19 0.61c-0.25,0.6 -0.22,0.73 -0.37,1.12 -0.04,0.12 -0.07,0.17 -0.11,0.26 -0.16,0.4 0.01,0.22 -0.29,0.89l-0.43 1.43c-0.12,0.48 -0.53,2.6 -0.04,2.86 1.01,0.54 0.63,0.26 1.37,0.06 0,-0.56 -0.31,-0.5 -0.44,-0.99 -0.01,-0.03 -0.04,-0.15 -0.05,-0.17l-0.09 -0.17c-0.07,-0.18 0.06,-0.7 0.01,-1.24 -0.02,-0.15 -0.02,-0.08 0.01,-0.22 0.32,-1.37 0.56,-2.29 1.02,-3.67 0.04,-0.11 0.11,-0.17 0.15,-0.32 0.4,-1.46 0.96,-3 1.43,-4.49 0.25,-0.8 0.21,-0.93 0.14,-1.72 -0.49,-0.11 -0.5,-0.04 -1,0.06 -0.23,0.05 -0.59,-0.02 -0.59,0.21zm-80.6 12.19l0 0.43c0.47,0 0.12,0.07 0.45,0.29l0.56 0.24c0.21,0 0.02,0.02 0.13,-0.08 0.25,-0.2 0.24,-0.28 0.24,-0.51 0,-0.19 -0.08,-0.09 -0.16,-0.21 0,-0.01 -0.01,-0.02 -0.02,-0.03 0,-0.01 -0.01,-0.03 -0.01,-0.04l-0.08 -0.24c-0.07,-0.13 -0.02,0 -0.06,-0.1 -0.05,-0.09 -0.02,-0.05 -0.06,-0.16 -0.18,-0.56 -0.06,-0.76 -0.05,-1.24 0.02,-0.46 -0.1,-0.34 0.01,-1.38 0.07,-0.6 0.04,-0.66 0.23,-1.27 0.17,-0.55 0.09,-1.03 0.43,-2.18 0.03,-0.12 0.03,-0.18 0.06,-0.31 0.06,-0.22 0.14,-0.33 0.2,-0.6 0.08,-0.4 0.13,-0.86 0.24,-1.25 0.05,-0.14 0.04,-0.14 0.08,-0.29 0.08,-0.33 0.07,0.03 0.16,-0.58 0.08,-0.48 0.32,-0.85 0.37,-1.18 0.02,-0.16 0.02,-0.17 0.05,-0.33l0.42 -1.12c0,-0.12 -0.02,-0.06 -0.05,-0.21 -0.36,-0.08 -0.27,-0.05 -0.69,-0.05 -0.39,0 -0.4,0.15 -0.59,0.32 -0.2,0.16 -0.25,0.28 -0.31,0.64 -0.06,0.36 -0.08,0.47 -0.18,0.78 -0.18,0.56 -0.47,2.32 -0.66,3.13 -0.07,0.29 -0.07,0.58 -0.11,0.84 -0.34,2.02 -0.65,3.78 -0.71,5.84 0.03,0.3 0.11,0.48 0.11,0.85zm37.79 0.22c0.03,0.14 0.01,0.06 0.05,0.17 0.07,0.19 0.22,0.34 0.38,0.47 0.01,0 0.02,0.01 0.03,0.02 0.15,0.11 0.11,0.08 0.4,0.08 0.25,0 0.01,-0.13 0.32,-0.21 0,-0.53 -0.86,-0.38 -0.42,-2.12 0.24,-0.91 0.16,-2.3 0.43,-3.36 0.05,-0.22 0.1,-0.39 0.18,-0.61 0.08,-0.21 0.11,-0.42 0.12,-0.67l0.41 -1.94c0.2,-0.89 0.57,-2.23 0.9,-3.09 0.09,-0.23 0.08,-0.41 0.16,-0.64 0.11,-0.35 0.13,-0.17 0.13,-0.67 -0.4,-0.11 -0.19,-0.02 -0.38,-0.02 -0.08,0 -0.36,-0.12 -0.72,0.14 -0.28,0.19 -0.43,0.62 -0.57,0.93 -0.09,0.2 -0.11,0.33 -0.17,0.57 -0.4,1.84 -0.76,3.7 -1.05,5.55 -0.19,1.14 -0.42,4.51 -0.2,5.4zm-67.02 -3.73c-0.49,0.01 -0.45,0.17 -0.72,0.4 -0.22,0.19 -0.24,0.55 -0.24,0.93 0.01,2.32 3.24,3.7 4.79,3.67 1.48,-0.02 3.24,0.21 4.67,-0.18 0.22,-0.05 0.15,0 0.25,-0.17l0.06 -0.15c0.03,-0.11 0.02,-0.06 0.03,-0.19 -1.98,-0.21 -2.03,0.18 -4.13,-0.51 -1.76,-0.57 -4.02,-2.21 -4.02,-4.07 -0.19,0.05 -0.11,0.06 -0.26,0.16 -0.01,-0.01 -0.03,-0.03 -0.04,-0.02 0,0.01 -0.02,-0.02 -0.03,-0.02 -0.03,-0.02 -0.1,-0.06 -0.1,-0.06 -0.14,-0.06 0.06,-0.04 -0.21,-0.06 -0.06,0.13 -0.05,0.07 -0.05,0.27zm36.8 4.19c0.05,0.02 0.27,0.09 0.27,0.09 0.07,0.02 0.53,-0.02 0.73,-0.02 0,-0.26 0.03,-0.25 -0.11,-0.38 -1.9,-1.71 0.42,-7.73 0.92,-10.31 0.15,-0.54 2.54,-8.29 2.54,-8.37l-0.17 -0.15c-0.35,-0.01 -0.35,-0.06 -0.58,0.09 -0.15,0.1 -0.26,0.18 -0.37,0.32 -0.48,0.63 -1.46,4.45 -1.75,5.39 -0.03,0.23 -0.32,0.87 -0.5,1.63 -0.8,3.28 -1.42,5.44 -1.79,8.9 0,0.38 -0.05,0.36 -0.1,0.6 -0.1,0.61 0.44,2.05 0.91,2.21zm46.29 -6.06l-0.12 0.99c-0.12,0.38 -0.15,0.47 -0.19,0.98 -0.02,0.27 -0.07,0.43 -0.11,0.69 -0.08,0.57 -0.03,0.9 0.01,1.44 0.03,0.5 -0.17,0.98 0.03,1.4l0.28 0.47c0.09,0.14 0.3,0.26 0.51,0.3 0.31,0.06 0.54,-0.2 0.78,-0.35 0.18,-0.12 0.14,0.01 0.21,-0.22 -0.07,-0.25 -0.08,-0.1 -0.26,-0.23 -0.06,-0.04 -0.05,-0.01 -0.1,-0.11 -0.14,-0.43 -0.64,-1.21 -0.6,-2.32 0.08,-0.12 0.31,-1.22 0.32,-1.33 0.02,-0.69 0.21,-0.95 0.14,-1.53 -0.01,-0.11 1.78,-7.3 1.97,-8.12 0.05,-0.31 0,-0.16 0.14,-0.4l0.04 -0.06c0.37,-0.74 0.12,-0.69 0.25,-1.03 0.05,-0.14 0.05,-0.07 0.1,-0.21 0.03,-0.08 0.05,-0.17 0.08,-0.25l0.4 -2.16c0.03,-0.19 0.02,-0.1 -0.02,-0.26 0,-0.02 -0.02,-0.09 -0.03,-0.12 0,-0.05 0,-0.05 0.01,-0.1 0.02,-0.2 0.08,0.03 0.01,-0.19 -0.08,-0.27 -0.02,0.05 -0.11,-0.21 -0.45,0 -0.85,-0.08 -1.14,0.14 -0.15,0.11 -0.06,0.08 -0.25,0.18 0,0.6 0.14,1.14 0.05,1.64 -0.03,0.18 -0.05,0.15 -0.11,0.32 -0.21,0.67 -0.29,2.21 -0.6,3.23 -0.07,0.21 -0.08,0.44 -0.12,0.62l-0.47 1.93c-0.06,0.27 -0.1,0.4 -0.16,0.64 -0.33,1.37 -0.7,2.86 -0.94,4.23z"/>
  <path class="fil18" d="M48.2 33.88c0.06,0.26 0.28,0.39 0.48,0.6 0.15,0.16 1.96,0.24 2.13,0.09 -0.46,-1.77 -1.12,-5.03 -1.16,-6.95 -0.02,-1.7 -0.21,-3.29 -0.21,-4.86 0.01,-1.8 -0.21,-3.22 -0.21,-4.86 0,-1.7 -0.22,-3.51 -0.22,-4.75 0,-0.97 -0.11,-1.94 -0.17,-2.91 -0.04,-0.52 0.07,-2.43 -0.59,-2.43 -2.08,0 -1.94,0.04 -1.71,2.15 0.55,5.21 0.34,10.82 0.69,16.04 0.02,0.31 0.17,0.97 0.2,1.47 0.05,0.57 0.03,1.02 0.09,1.58 0.06,0.56 0.12,1.01 0.14,1.54 0.03,0.64 0.39,2.65 0.54,3.29zm19.3 -15.12c0.34,-0.97 1.58,-1.64 -0.47,-1.77 0.16,0.59 0.31,1.18 0.47,1.77zm2.08 14.81c1.1,1.04 2.33,0.93 2.81,0.04 0.2,0 0.17,-0.11 0.17,-0.37 -4.62,-3.23 1.52,-12.88 2.75,-15.12 -1.77,0.15 -4.51,5.71 -5.14,7.38 -1.26,3.33 -1.61,5.55 -0.59,8.07zm-26.57 -19.77c0,-1.73 -8.35,16.1 -10.8,19.27 -0.52,0.67 -0.91,0.85 -0.91,1.68 0.88,0 0.49,0.34 1.44,-0.02 0.98,-0.37 5.87,-10.16 6.48,-12.15 0.74,-2.45 3.79,-6.61 3.79,-8.78zm48.66 18.57c-0.1,-0.39 0.05,0.2 0,0zm0.17 -14.79c0,2.81 -0.23,3.01 -0.81,5.35 -0.18,0.71 -0.28,1.56 -0.44,2.26 -0.73,3.26 -0.77,5.71 -1.04,8.81 0.7,-0.45 1.18,-0.43 2.02,-0.39 0,-1.17 0.66,-0.4 0.34,-1.47 -1.2,-3.95 2.1,-12.61 2.25,-14.83 0,-0.15 -0.29,-0.48 -0.4,-0.51 -0.11,-0.03 -0.71,0.06 -0.9,0.08 -0.25,0.03 -0.69,0.05 -0.92,0.11 -0.55,0.14 -0.1,0.24 -0.1,0.59zm-37.41 11.36c-0.37,3.51 0.02,5 2.64,5.52 0.09,0.02 2.14,0.18 2.31,0.18 0.83,0 -0.25,-0.61 -0.25,-0.62 -1.14,-1.11 -2.47,-3.47 -2.38,-5.74 0.06,-2.92 2.41,-8.59 2.41,-8.81 -2.77,-0.23 -4.47,7.11 -4.73,9.47zm29.76 -11.77c-0.15,0.07 -0.15,-0.02 -0.29,-0.02 -0.19,0 -0.21,0.04 -0.38,0.05 -0.06,0.25 -0.49,1 -0.61,1.34 -0.6,1.81 -1.7,7.52 -1.82,9.89 -0.1,1.94 -0.17,3.2 -0.09,5.1 0.43,0.3 2.52,1.47 2.52,0.3 -2.36,-0.62 -1.51,-4.02 -0.59,-7.49 0.55,-1.78 3.65,-9.41 2.1,-9.41 -0.74,0 -0.21,0.07 -0.48,0.27 0,-0.26 0.02,-0.19 -0.09,-0.3l-0.27 0.27z"/>
 </g>
</svg>
